<?xml version="1.0" encoding="utf-8"?>
<!-- Generator: Adobe Illustrator 27.3.1, SVG Export Plug-In . SVG Version: 6.00 Build 0)  -->
<svg version="1.1" id="Layer" xmlns="http://www.w3.org/2000/svg" xmlns:xlink="http://www.w3.org/1999/xlink" x="0px" y="0px"
	 viewBox="0 0 300 149" style="enable-background:new 0 0 300 149;" xml:space="preserve">
<style type="text/css">
	.st0{fill:#231F20;}
	.st1{fill:#303F23;}
	.st2{fill:#8DBE66;}
	.st3{fill:#A4CB85;}
	.st4{fill:#5F7E46;}
	.st5{fill:#7B9864;}
	.st6{fill:#F9FFE3;}
	.st7{fill:#DCFFBF;}
	.st8{fill:#382C34;}
	.st9{fill:#C299B2;}
	.st10{fill:#FFF5F8;}
	.st11{fill:#7D6373;}
	.st12{fill:#FFFFFF;}
</style>
<path id="path-01_00000039109073147699376800000005064431623820405144_" class="st0" d="M286.42706,109.21014
	c-2.79803,0.94432-6.06067,0.99718-8.97424,1.53444c-2.92108,0.53864-5.81348,1.21127-8.69662,1.92413
	c-6.62827,1.63895-13.0842,3.91951-19.06032,7.25793c-0.77827,0.43472-1.46873-0.75163-0.69748-1.19692
	c5.94185-3.43089,12.38802-5.84373,19.00404-7.6c3.05441-0.81084,6.14243-1.51209,9.24988-2.08649
	c2.86481-0.52945,6.06464-1.39357,8.9823-1.25932C287.06519,107.82216,287.20047,108.94912,286.42706,109.21014z
	 M250.91158,102.41308c2.94261,1.80294,6.10063,2.74261,9.50111,3.21499c1.78885,0.24847,3.5892,0.38213,5.39337,0.45106
	c0.86243,0.03292,1.72101,0.04753,2.58401,0.02621c0.89334-0.02209,1.77496,0.05406,2.60251-0.30675
	c0.50171-0.21883,0.50427-1.11209,0-1.32997c-0.72702-0.31406-1.45175-0.27108-2.23322-0.29635
	c-0.86206-0.02785-1.72208-0.04513-2.58435-0.05664c-1.71909-0.02312-3.43921-0.09506-5.14941-0.27728
	c-3.21338-0.34241-6.55612-1.1077-9.47191-2.52715C250.82375,100.95582,250.20442,101.9799,250.91158,102.41308z
	 M241.45973,114.40067c-0.45705-3.66485-0.45396-7.77422,1.04698-11.21276c0.20512-0.46997-0.41522-0.86516-0.70082-0.41093
	c-2.27031,3.61182-2.48958,7.64822-2.00032,11.80615c0.45174,3.83855,1.20036,7.99142,4.37808,10.53764
	c0.36528,0.29266,1.01555-0.08405,0.70622-0.54663C242.87105,121.55537,241.90572,117.9769,241.45973,114.40067z
	 M298.17307,111.40226c-0.66553,0.63688-1.57388,1.01179-2.48889,0.99933c-1.47217,0.54526-3.1348,0.61677-4.67603,0.82416
	c-1.49985,0.20181-3.00052,0.38522-4.49213,0.64419c-3.33221,0.57843-6.63864,1.3652-9.92484,2.16066
	c-1.19763,0.2899-2.37469,0.619-3.54224,0.967c0.59235,9.09946-3.39929,18.03889-11.4801,22.67864
	c-9.69862,5.56886-21.41273,6.51318-32.30743,7.62932c-42.12012,4.31531-85.89661,0.8367-125.24746-15.64444
	c-1.25504-0.52567-2.4919-1.0919-3.73614-1.64171c-15.28521,4.15509-30.78293,7.40413-46.54464,9.49551
	c-11.73973,1.55765-23.5493,2.48598-35.38817,2.76677c-4.86349,0.11534-10.09415,0.29678-14.44773-2.24223
	c-3.31191-1.93143-5.40691-5.1649-2.5583-8.49086c0.45113-0.52678,0.99909-0.6373,1.49092-0.49454
	c2.70474-2.29105,6.25168-3.1483,9.55296-4.33362c5.30923-1.90634,10.39276-4.90388,15.34202-7.58934
	c5.1268-2.7819,10.20614-5.64931,15.21375-8.64222c4.14305-2.47609,8.2305-5.04088,12.29317-7.64452
	c-0.41891-0.33289-0.85-0.64935-1.26634-0.98557c-8.17728-6.60464-15.61296-14.11963-24.08363-20.35992
	c-5.95221-4.38484-15.47175-9.03483-15.2338-17.70128c0.02228-0.81376,0.70922-1.21738,1.44774-1.10624
	c22.40274,3.37039,44.79794,6.87967,67.06531,11.06785c4.06062,0.76374,8.11687,1.56134,12.17287,2.36375
	c11.42295-7.46936,23.05061-14.61495,35.20428-20.82679c20.15891-10.30326,41.85149-16.8277,62.6981-25.50008
	c10.54349-4.38613,20.76813-9.44592,30.31389-15.74655c7.66832-5.06151,15.83463-13.86874,25.89998-12.03245
	c2.53398,0.46223,5.01987,1.66895,6.87822,3.49132c3.58685,1.31802,7.24271,1.82271,11.22989,1.19658
	c5.22305-0.82021,9.95123-2.75457,13.9314-6.27992c0.35568-0.315,0.8858-0.54053,1.36505-0.36193
	c3.31601,1.23594,6.4928,3.03235,8.45807,6.0837c1.82211,2.82882,2.05234,6.16277,1.59555,9.41395
	c-0.06931,0.49326-0.54837,0.80388-0.96216,0.96512c-4.75211,1.85168-7.86557,5.38975-9.65552,10.15276
	c-1.7778,4.73078-2.42163,10.06088-2.29749,15.11706c0.85574,0.93907,1.38931,2.10299,1.41089,3.47868
	c0.06308,4.00417-2.57535,8.12102-5.31256,10.82909c-6.36694,6.29917-15.60587,8.67625-23.733,11.74719
	c-11.00156,4.15707-21.73955,8.88992-32.373,13.90854c-1.76648,0.8337-3.51283,1.70874-5.25208,2.5984
	c3.10515-0.32153,6.20892-0.65828,9.31535-0.98858c5.77647-0.61419,11.59912-1.06826,17.41072-0.79898
	c9.96777,0.46172,20.96376,3.67258,24.88652,13.51558c0.52017,0.86714,0.95212,1.80295,1.28561,2.80656
	c2.38745,0.10331,4.77454,0.19459,7.16672,0.18419c6.50418-0.02845,12.99054-0.62141,19.46997-1.13177
	c0.18622-0.0147,0.33923,0.02071,0.47275,0.0801c0.27829,0.04865,0.55524,0.12763,0.81693,0.25957
	c2.56644,1.29395,4.09454,4.03056,4.38586,6.82706C300.16336,107.21743,299.77237,109.87177,298.17307,111.40226z
	 M296.84314,109.40052c0.36758-0.60069,0.58344-1.49585,0.67194-2.15327c0.03787-0.28157,0.07919-0.80422,0.08167-1.22038
	c0.00223-0.37182-0.0155-0.74647-0.06152-1.11578c-0.01303-0.06403-0.05286-0.30761-0.05948-0.34053
	c-0.0311-0.15514-0.06769-0.30882-0.10495-0.46249c-0.06683-0.27555-0.14026-0.54861-0.2298-0.81763
	c-0.1665-0.49953-0.39261-0.96658-0.65808-1.42064c-0.4548-0.77801-0.99933-1.64248-1.78644-2.10695
	c-0.17053-0.10064-0.11484-0.08199-0.28568-0.13158c-0.0694-0.02011-0.10052-0.02381-0.11533-0.02579
	c-0.01682,0.0037-0.03284,0.00842-0.04938,0.01307c-0.01617,0.00833-0.03793,0.01908-0.04959,0.02604
	c0.05698-0.03421-0.08954,0.0997-0.11603,0.14053c-0.15158,0.2337-0.23108,0.49266-0.28705,0.75987
	c-0.12167,1.271-0.173,2.54546-0.22714,3.82239c-0.05835,1.37775-0.26477,2.84232,0.30194,4.14883
	c0.3215,0.74122,0.9476,1.62786,1.828,1.6558C296.14789,110.18635,296.5639,109.85699,296.84314,109.40052z M79.00689,132.02992
	c22.42965-4.63831,44.12198-11.89408,65.67036-19.57075c10.56927-3.76541,21.18353-7.45819,31.55444-11.75209
	c10.49129-4.34376,20.48305-9.65916,30.51859-14.94998c9.86485-5.20083,19.75182-10.3238,29.9379-14.86961
	c4.98242-2.22358,10.04369-4.26786,15.14186-6.20858c4.27681-1.62804,8.65309-3.04078,12.82124-4.94221
	c3.58173-1.63388,7.11893-3.6297,9.82074-6.54963c1.30884-1.41437,2.3938-3.07232,3.06635-4.88609
	c0.40167-1.08338,1.02512-2.68589,0.54297-3.81242c-0.31464-0.73512-1.09686-1.14716-1.76263-1.50358
	c-1.53607-0.82236-3.19092-1.42408-4.35803-2.78577c-1.42075-1.65769-1.57797-3.80967-1.59692-5.90226
	c-0.01807-1.99126-0.08405-3.80305-1.29007-5.46452c-0.99368-1.3689-2.4057-2.41498-3.7691-3.3844
	c-2.2753-1.61772-4.76318-3.16282-6.52487-5.36577c-3.87621,4.04448-7.98311,7.8202-12.33479,11.34916
	c-7.71733,6.25834-16.06152,11.69046-24.77606,16.44308c-8.61951,4.70087-17.59212,9.15937-27.00078,12.02661
	c-0.44797,0.13649-0.74855-0.55789-0.32115-0.76408c5.69019-2.74494,11.51207-5.20513,17.17946-7.99872
	c5.60733-2.76393,11.07721-5.81021,16.38138-9.12215c10.75581-6.71593,20.80481-14.51336,29.89627-23.3689
	c-1.95868-3.53781-0.60315-8.01453-3.71385-11.00984c-7.46661-7.18934-17.4726,0.79838-23.75667,5.4084
	c-17.38193,12.75107-37.89256,20.29013-57.95499,27.63023c-10.2872,3.76377-20.58263,7.54576-30.56812,12.06898
	c-9.87215,4.47173-19.40154,9.67661-28.66368,15.30246c-18.79703,11.41723-36.54492,24.44832-55.03442,36.343
	c-9.44165,6.0739-19.06136,11.89717-28.98842,17.1414c-4.75956,2.51434-9.58021,5.07191-14.5616,7.12093
	c-3.36589,1.38445-7.44099,1.89903-10.43046,4.09235c0.0144,0.32979-0.07163,0.66954-0.2849,0.99098
	c3.19632,0.04341,6.47823-1.22751,9.56855-1.77939c3.53246-0.63077,7.09337-1.05226,10.59703-1.84601
	c6.42168-1.45467,12.62263-3.72182,18.76489-6.06659c6.21132-2.37123,12.40585-4.78741,18.58898-7.23145
	c12.50336-4.9423,24.90235-10.14717,37.40657-15.08294c0.92728-0.36597,1.57472,1.20913,0.67614,1.6087
	c-7.11265,3.16273-14.33102,6.08257-21.54212,9.01188c-12.82391,5.20934-25.68697,10.37785-38.68516,15.13622
	c-6.39923,2.3427-12.89271,4.36284-19.63151,5.44501c-3.42946,0.55077-6.87221,0.98833-10.26218,1.76041
	c-1.99278,0.45389-4.00553,0.89687-5.96061,0.54578c0.65301,2.16246,7.41271,3.53317,8.53468,3.61783
	c5.4716,0.41307,11.10772-0.06085,16.57795-0.35532c5.62609-0.30287,11.24781-0.73167,16.85386-1.29593
	C56.64056,136.06631,67.87767,134.33145,79.00689,132.02992z M258.70309,9.04638c0.67908,1.83577,0.6394,3.73807,0.99207,5.64037
	c0.17328,0.2514,0.33881,0.51002,0.53571,0.73916c1.20526,1.40285,2.67966,2.01223,4.51758,1.91451
	c1.86957-0.09944,3.73022-0.66782,5.44257-1.40543c0.90054-0.38789,1.77567-0.83671,2.63406-1.31029
	c0.74057-0.40869,1.52518-1.09284,2.3996-1.02829c0.75473,0.0557,1.11957,0.75093,0.81445,1.42365
	c-0.43402,0.95652-1.91141,1.46955-2.80286,1.9274c-0.95026,0.4881-1.92511,0.93271-2.9216,1.31759
	c-2.00281,0.77354-4.2218,1.28906-6.38065,1.16099c-0.68137-0.0404-1.29333-0.17723-1.85596-0.37877
	c0.18637,0.18488,0.3671,0.37362,0.56552,0.55016c2.59241,2.30626,5.85608,3.80933,8.18604,6.42637
	c0.88632,0.99546,1.61362,2.12723,2.0741,3.37468c0.00446-0.01066,0.00754-0.0214,0.01208-0.03206
	c0.69781-1.64213,1.54044-3.20708,2.50079-4.70886c0.98685-1.54321,2.04086-3.07094,3.18863-4.49898
	c0.55884-0.69532,1.15665-1.3671,1.73358-2.04901c0.53381-0.63095,0.99188-1.39529,1.79184-1.67488
	c0.42816-0.14964,1.0361,0.2581,0.97183,0.7426c-0.11328,0.85459-0.72635,1.44316-1.23404,2.11614
	c-0.53937,0.71501-1.04971,1.44815-1.57626,2.17072c-1.00131,1.37415-2.03613,2.71391-2.96625,4.13988
	c-1.45999,2.23853-2.86609,4.64896-3.92542,7.15101c-0.01208,1.72731-0.15045,3.53816,0.62979,4.91686
	c0.65506,1.15755,1.9946,1.7035,3.23788,2.2681c0.03665-5.14308,0.85907-10.54589,2.87103-15.19433
	c2.12878-4.91841,5.38525-8.36451,10.17264-10.48306c0.23581-2.33565-0.08405-4.71531-1.39185-6.71284
	c-1.43893-2.19788-3.7872-3.57151-6.18262-4.52614c-4.35745,3.64069-9.40567,5.73277-15.0777,6.45328
	C264.79147,9.84124,261.60895,9.81829,258.70309,9.04638z M57.2605,101.55153c1.53882-0.9952,3.06865-2.00423,4.59916-3.01225
	c-2.72171-1.9035-5.42439-3.83373-8.11174-5.78098c-0.65258-0.4728-0.04987-1.56142,0.64213-1.10186
	c2.97131,1.97304,5.92959,3.9636,8.89018,5.94876c1.85088-1.22495,3.69714-2.45684,5.53903-3.69553
	c-6.70272-3.39041-13.40245-6.78676-20.10355-10.18052c-0.92129-0.46661-0.10976-1.85021,0.80827-1.38686
	c6.95473,3.51048,13.89617,7.04073,20.86512,10.51202c0.70082-0.47298,1.40515-0.9408,2.10503-1.41515
	c1.15872-0.78531,2.31847-1.57157,3.47753-2.35774c-0.93945-0.40688-1.87873-0.81428-2.81861-1.22004
	c-7.24435-3.12724-14.50797-6.21296-21.85128-9.10014c-7.13338-2.80468-14.37233-5.28584-21.57314-7.90168
	c-0.82678-0.30039-0.50511-1.56178,0.36742-1.33668c8.19827,2.11536,16.17531,5.21424,24.03462,8.33976
	c7.88441,3.13549,15.68485,6.47863,23.47586,9.83939c0.08131,0.03506,0.16289,0.07039,0.2442,0.10546
	c4.96486-3.36549,9.94103-6.72212,14.95148-10.02693c-6.12315-1.19666-12.24828-2.3812-18.38848-3.47602
	c-19.07944-3.40184-38.24962-6.23514-57.40438-9.16847c0.52234,4.1386,3.98076,7.19673,7.19507,9.6081
	c4.02403,3.01894,8.20761,5.765,12.09798,8.97054C43.392,89.5562,50.09507,95.81799,57.2605,101.55153z M271.5025,121.99946
	c-0.1622,0.25656-0.33203,0.5126-0.51266,0.76881c-1.44437,2.04927-2.5224,4.33335-4.00424,6.35693
	c-2.4978,3.41087-5.60886,5.52538-9.85721,6.05069c-6.58423,0.81419-15.10553-2.00294-19.22433-7.40189
	c-2.43629-3.1935-3.23145-7.49188-3.68704-11.39669c-0.52388-4.49055-0.18182-8.99821,0.79465-13.40394
	c0.81477-3.67585,2.12747-7.18255,5.02158-9.72319c2.70406-2.37373,6.11708-4.5129,9.76015-4.84071
	c3.25964-0.29334,6.60814,0.26481,9.55467,1.59563c-6.82611-5.06013-17.00902-5.51901-25.44414-5.15949
	c-5.41307,0.23068-10.79085,0.882-16.17188,1.48279c-2.75958,0.30812-5.52457,0.56906-8.29169,0.80748
	c-4.67172,2.51039-9.30515,5.09985-13.99179,7.5829c8.72258-0.31715,17.42982-1.19245,26.089-2.8149
	c1.26942-0.23782,1.81259,1.70333,0.53648,1.95198c-7.28668,1.41987-14.63864,2.2644-22.05006,2.65512
	c-2.83824,0.14964-5.67802,0.22415-8.51805,0.25304c-0.95137,0.48337-1.90204,0.96821-2.8613,1.43568
	c-10.46593,5.10088-21.37958,9.18179-32.30957,13.15279c-1.98808,0.72231-3.97632,1.44445-5.96465,2.16642
	c4.80386,0.95471,9.65073,1.72903,14.5587,2.23466c16.04704,1.6534,32.38678,0.97243,48.20479-2.2375
	c3.36134-0.68217,6.68541-1.25133,9.17012-3.82927c2.36397-2.45271,2.55513-5.40607,3.48892-8.49644
	c1.7437-5.7699,5.56697-10.20716,11.10764-12.54298c0.33006-0.13915,0.52509,0.39287,0.23666,0.56296
	c-3.26915,1.92817-5.9433,4.92348-7.73755,8.25597c-0.89087,1.6545-1.5611,3.3984-1.9957,5.22807
	c-0.38156,1.60638-0.5555,3.18715-1.23318,4.71273c-3.20856,7.22321-11.45456,7.9175-18.31975,9.03784
	c-15.8929,2.59341-32.1604,2.78688-48.11629,0.63473c-4.32265-0.58308-8.6069-1.37011-12.86108-2.29405
	c-8.09409,2.9293-16.20154,5.82138-24.37008,8.5358c-2.68563,0.89249-5.37838,1.75516-8.07677,2.59393
	c15.60748,5.92358,31.9503,9.70591,48.67949,11.64225c12.59204,1.4575,25.28168,1.98454,37.9529,1.89111
	c6.35895-0.04692,12.71808-0.24348,19.06934-0.55728c1.69064-0.08354,3.38071-0.17662,5.07042-0.27632
	c1.38536-0.08174,3.35371,0.13321,4.62828-0.45381c1.68346-0.77544,1.53085-2.21507,1.0128-3.66245
	c-0.43048-1.20267-0.58609-2.40535-0.50639-3.67885c0.08286-1.3219,2.13065-1.33315,2.06192,0
	c-0.14258,2.77011,2.07187,5.34798-0.00848,7.8532c-1.92484,2.31795-5.77586,1.82005-8.45473,1.97649
	c-7.40526,0.43248-14.819,0.70425-22.23703,0.74904c-26.26543,0.15866-52.84669-2.33926-78.00011-10.2639
	c-4.10346-1.29283-8.12184-2.76874-12.07904-4.3728c-2.52746,0.7664-5.05954,1.51304-7.59866,2.22985
	c21.10016,8.88174,43.60606,14.35822,66.5674,16.45012c20.61655,1.87833,41.38622,1.29138,61.95811-0.85638
	c9.62999-1.00543,19.96132-2.00484,28.44931-7.09464C266.75272,134.0369,270.47,128.37675,271.5025,121.99946z M292.90625,110.91485
	c-0.39441-0.47874-0.72131-1.02021-0.95129-1.58962c-0.65454-1.62064-0.42789-3.27274-0.26321-4.95786
	c0.08441-0.86284,0.12177-1.72576,0.24454-2.58498c0.00867-0.06034,0.03009-0.11225,0.0401-0.17147
	c0.00668-0.48217,0.11664-0.98007,0.25073-1.42915c-6.45047,0.53899-12.90128,1.068-19.38107,0.98618
	c-3.69455-0.04659-7.6629,0.04873-11.27856-0.79915c-3.19897-0.75016-5.11334-3.11598-6.95686-5.66238
	c-0.43375-0.59915,0.54445-1.3396,1.01631-0.78661c1.12564,1.31931,2.30209,2.67034,3.78104,3.60486
	c1.64258,1.038,3.49911,1.16426,5.39001,1.24712c0.18799,0.00825,0.37573,0.01564,0.56366,0.02398
	c-3.13901-6.75401-11.78336-9.88435-18.58342-6.49118c-2.72266,1.3585-5.55917,3.28547-7.06792,5.9986
	c-1.6198,2.91271-2.24625,6.60231-2.60638,9.87653c-0.39337,3.57674-0.24977,7.22328,0.44875,10.75328
	c0.63295,3.1984,1.54567,6.27467,3.99455,8.54973c4.20277,3.90447,11.73956,6.01812,17.26547,4.44431
	c3.1749-0.90427,5.49185-3.01224,7.20538-5.77093c0.95709-1.54089,1.81583-3.1409,2.86487-4.62317
	c0.8667-1.2246,1.68887-2.38585,1.88541-3.82403c-5.7804,1.93075-11.23581,4.54092-16.60141,7.60017
	c-1.06567,0.60757-1.8394-0.89266-0.93002-1.59589c6.46066-4.99584,14.61105-7.81788,22.44781-9.79702
	c3.45886-0.87349,6.92841-1.72343,10.45505-2.27608c1.51791-0.23791,3.04654-0.44427,4.57825-0.56503
	C291.42526,111.01936,292.16507,110.95215,292.90625,110.91485z M127.22813,101.1847
	c16.57256-6.47313,33.09129-13.0849,49.55528-19.83083c14.62791-5.99362,29.38823-11.83357,43.56544-18.85582
	c7.50697-3.71822,14.84016-7.82055,21.75761-12.56061c3.44052-2.35749,6.78696-4.86804,9.99553-7.53503
	c3.21748-2.67437,6.46959-5.37685,8.78908-8.88871c0.34436-0.52145-0.36032-1.27573-0.88538-0.88811
	c-2.905,2.14485-5.36957,4.73723-8.08218,7.11929c-2.93283,2.57545-5.9978,4.9882-9.17963,7.24641
	c-6.11742,4.34169-12.58965,8.16125-19.23239,11.63297c-13.82719,7.22664-28.36052,13.01485-42.77466,18.93369
	c-32.69586,13.42586-65.60849,26.32699-98.71307,38.7041c-18.30605,6.84425-36.75142,13.06297-55.40063,18.88547
	c-0.61059,0.19064-0.35782,1.08038,0.26237,0.95473c17.19462-3.4823,33.80111-9.77459,50.21797-15.85528
	C93.86565,114.03831,110.57752,107.68834,127.22813,101.1847z M96.40425,93.76416
	c6.50034-4.50947,12.70557-9.42908,19.28791-13.82259c25.22753-16.83887,53.92051-27.48059,82.22071-37.84203
	c7.68442-2.81353,15.44133-5.49538,23.01479-8.60061c7.27785-2.98396,14.99577-6.33398,20.40654-12.23409
	c0.52867-0.57654-0.15346-1.57518-0.86397-1.12309c-6.09427,3.878-12.11417,7.69171-18.74475,10.60425
	c-6.81831,2.99488-13.85881,5.47862-20.84019,8.05733c-13.97705,5.16276-27.98256,10.27128-41.70633,16.0882
	c-13.70158,5.80746-27.13515,12.32846-39.77396,20.22223c-13.25071,8.27582-25.14193,18.45256-39.05464,25.67739
	c-7.86727,4.08548-15.99657,7.65157-24.05809,11.32828c-4.32462,1.97235-8.64033,3.96154-12.94738,5.97205
	c-4.28323,1.99942-8.67957,3.90112-12.73745,6.33251c-0.50965,0.30547-0.18003,1.17896,0.41412,0.98532
	c7.72392-2.51752,15.17888-6.31155,22.56974-9.67403c7.35248-3.34503,14.74651-6.6134,22.02419-10.12045
	C82.81689,102.14449,89.82713,98.32691,96.40425,93.76416z M263.0004,53.20323c-2.99994,1.86749-6.12839,3.5318-9.26909,5.14626
	c-6.14954,3.1611-12.34125,6.39801-19.07884,8.08355c-0.34428,0.08612-0.25792,0.59219,0.08165,0.60508
	c3.94281,0.1505,7.7462-0.98841,11.33368-2.52457c4.02882-1.72507,7.96265-3.75948,11.84264-5.79585
	c1.93399-1.01505,3.83374-2.09233,5.68753-3.24877c1.47577-0.92059,3.11551-1.85168,4.29727-3.1568
	c2.57458-2.84335,1.14682-6.00016-1.2384-8.40457c-0.77484-0.7811-1.8353,0.36236-1.17886,1.1824
	c1.18365,1.47874,2.45139,3.42385,1.20697,5.24234C265.8143,51.6045,264.27496,52.40984,263.0004,53.20323z M125.84055,115.99948
	c5.84253-2.02263,11.63538-4.23159,17.2738-6.7755c2.8779-1.29842,5.72145-2.67532,8.52002-4.13791
	c2.61357-1.3659,5.45764-2.78413,7.72495-4.68531c0.46725-0.39185-0.03281-1.27385-0.60828-1.04815
	c-2.77397,1.0882-5.41299,2.73772-8.06966,4.09803c-2.81279,1.44016-5.66954,2.79298-8.5591,4.07087
	c-5.70055,2.52104-11.50093,4.78862-17.38767,6.8336c-11.7597,4.08522-23.86411,7.0342-35.64831,11.01817
	c-0.57684,0.19502-0.3448,1.03353,0.25072,0.91226C101.6876,123.77164,113.93322,120.12157,125.84055,115.99948z
	 M216.15218,27.23318c1.46144,0.08861,3.03616-0.575,4.41278-1.0362c1.53856-0.51535,3.04782-1.11768,4.52495-1.78954
	c3.07147-1.39701,5.99754-3.13643,8.69748-5.16336c2.54948-1.91399,4.67131-4.2297,7.08368-6.28946
	c3.40282-2.90523,7.28223-2.15868,10.42293,0.7823c0.7363,0.68956,1.77008-0.35763,1.10123-1.10461
	c-2.16295-2.41533-5.1933-4.35458-8.55721-3.69433c-3.46007,0.67908-5.73517,3.78835-8.18748,6.04674
	c-2.78572,2.56539-5.89711,4.76989-9.2462,6.53243c-1.79451,0.9444-3.65097,1.7653-5.56038,2.44678
	c-1.64729,0.58797-3.60872,0.82218-5.11806,1.69069C214.96637,26.0917,215.34467,27.18428,216.15218,27.23318z"/>
</svg>
