<svg version="1.1" id="Layer_1" xmlns="http://www.w3.org/2000/svg" xmlns:xlink="http://www.w3.org/1999/xlink" x="0px" y="0px" viewBox="1096.19153 273.82907 300 246.34189" style="enable-background:new 1096.19153 273.82907 300 246.34189;" xml:space="preserve"><defs><style> .svg-style-0 {  fill: rgb(0, 0, 0); }</style></defs><path id="path-01_00000176740933386250987420000017333554985277268405_" d="M1380.86768,336.87653
	c-1.96558-1.43475-4.07104-2.37134-6.25903-2.96011c-1.17822-9.84503-7.97888-17.86917-16.53931-22.52011
	c-4.73193-2.57077-9.91589-4.25555-15.16174-5.40503c-4.65308-1.01962-9.44482-1.52847-13.96619-3.08957
	c-1.82434-0.62991-3.65759-1.49619-5.17371-2.70554c-1.9281-1.53784-3.0874-3.61041-4.41309-5.64133
	c-2.70581-4.14493-6.43262-7.18326-10.99854-9.07892c-6.64099-2.75729-13.88586-2.5336-20.55127-0.32413
	c-0.14722-0.16559-0.30896-0.32132-0.49719-0.45224c-4.61023-3.20709-9.26929-6.35388-14.52808-8.40887
	c-5.32129-2.07941-11.15503-2.39645-16.81555-2.45853c-2.67761-0.02942-5.42151,0.14572-8.03003,0.78464
	c-1.5824,0.3876-3.74585,1.02017-5.16003,2.22281c-1.94983,0.21222-3.91382,0.87823-5.77344,1.45532
	c-1.98145,0.61496-3.9364,1.31491-5.85828,2.09607c-3.87378,1.57446-7.67944,3.39105-11.19409,5.66583
	c-3.4884,2.25766-6.80469,4.80011-9.85876,7.6185c-2.14771,1.98181-4.48035,4.09998-6.05481,6.62991
	c-3.96021-3.76859-7.39783-8.25772-12.42419-10.65967c-6.32666-3.02325-13.7981-2.67062-20.22424-0.11685
	c-6.49731,2.58209-11.89514,7.16602-16.59924,12.24802c-5.5896,6.03867-11.09729,12.62024-14.91479,19.94406
	c-3.63269,6.96942-5.77515,14.67688-7.39282,22.34723c-2.92261,0.44324-5.79736,1.16452-8.5697,2.23624
	c-8.86487,3.42697-15.95483,9.99149-20.65686,18.19864c-2.32849,4.06384-4.10339,8.47699-5.29651,13.00409
	c-0.57434,2.17889-1.00745,4.39136-1.31531,6.62326c-0.34106,2.474-0.95422,5.40817,0.32739,7.71066
	c1.31152,2.35596,4.23108,3.42035,6.76038,3.78918c2.65649,0.38736,5.33984,0.03912,7.92017-0.65195
	c3.56555-0.95493,6.93005-2.62097,10.45911-3.69669c0.2804,4.88458,0.72168,9.78473,1.68213,14.58066
	c1.05786,5.28189,2.54858,10.4585,4.38965,15.52014c3.65039,10.03641,8.69092,19.53867,14.93347,28.20398
	c6.50232,9.02591,14.21094,17.07297,22.97498,23.92517c9.63281,7.53162,20.15393,13.76788,30.78357,19.76941
	c8.5564,4.83102,17.45056,8.93201,26.83704,11.46085c-0.28162,2.2034-0.19397,4.53946-0.17542,6.64963
	c0.01135,1.2934-0.12146,2.8374,0.55176,4.00409c0.65552,1.13623,1.8689,1.63593,3.05396,2.02362
	c5.61377,1.83661,11.58203,2.63049,17.47412,2.73926c5.89368,0.10889,11.78088-0.49866,17.61951-1.24927
	c3.06665-0.39423,6.10571-0.91125,9.14368-1.48499c2.67456-0.50507,5.55408-0.80969,8.1322-1.69794
	c1.40527-0.48413,2.67407-1.22528,3.54285-2.45856c0.94385-1.33984,1.17505-2.95444,1.31006-4.54938
	c0.29724-3.5097,0.17712-7.04825-0.25854-10.54044c-0.01648-0.13287-0.04407-0.26251-0.07532-0.39044
	c8.16846-3.49792,16.14624-7.40079,23.7948-11.97345c10.52258-6.29083,20.53296-13.51675,29.45288-21.94644
	c16.35034-15.45166,28.77771-34.90225,36.07886-56.17313c3.76147-10.95844,6.06421-22.39542,6.93274-33.9458
	c2.2157,1.22562,4.7301,2.05942,7.24329,1.8364c3.1991-0.28391,5.98108-2.20529,7.40405-5.0842
	c3.2041-6.48264-0.39087-13.61667-3.26917-19.51462C1389.05066,345.62842,1385.74634,340.43756,1380.86768,336.87653z
	 M1304.60901,289.35324c3.77869,1.26437,7.33142,3.65961,9.59827,6.97595c1.40588,2.05661,2.52832,4.27469,4.17883,6.16205
	c1.44934,1.65738,3.29846,3.03134,5.25317,4.03513c3.96167,2.03427,8.33594,2.91541,12.6803,3.70364
	c4.87415,0.88431,9.70874,1.89755,14.34937,3.67178c8.44714,3.22946,16.82166,9.96237,18.67542,19.21884
	c-2.56226-0.1254-5.17822,0.0625-7.77478,0.38461c-3.44897,0.42786-6.90771,0.97733-10.39392,0.89941
	c-3.19885-0.07141-6.24805-0.90839-9.16821-2.19418c-6.09937-2.68585-11.74109-6.45047-18.51538-7.19501
	c-7.22583-0.79416-14.85645,1.5943-21.23499,4.85797c-3.00012,1.53497-5.69983,3.43829-8.10486,5.66058
	c-1.63525-1.0412-3.40808-1.7818-5.25684-2.2598c-0.13306-0.7533-0.24341-1.53421-0.58533-2.2171
	c-0.35388-0.70648-0.8313-1.3808-1.26746-2.03845c-0.99084-1.4938-2.08801-2.95941-3.37244-4.21518
	c-2.48633-2.43063-5.61267-3.90833-8.98267-4.66324c-3.22852-0.72318-6.55078-0.88153-9.79102-1.53928
	c-1.85535-0.37662-3.55896-0.97046-5.15869-1.81125c5.98962-7.92624,11.54736-16.5271,19.75439-22.37595
	C1286.80188,289.20435,1295.83215,286.41629,1304.60901,289.35324z M1238.69263,397.06985
	c-3.44922-4.14389-7.16699-8.07343-10.98499-11.87888c-2.10217-2.09525-4.20435-4.19043-6.30664-6.28568
	c-2.00757-2.00098-3.96667-4.08752-6.18726-5.85712c-4.43274-3.53262-9.81238-5.14078-14.90564-7.46063
	c-1.81226-0.82541-3.60632-1.68878-5.39453-2.56485c2.26782-4.92566,5.67395-9.53665,10.255-12.38602
	c2.84033-1.76657,6.04004-2.73184,9.39221-2.70728c3.72424,0.02734,7.35193,1.11661,10.87073,2.24011
	c3.60925,1.15231,7.19849,2.36765,10.96973,2.86667c3.97449,0.52588,7.96936,0.06122,11.78882-1.13101
	c7.89795-2.46542,14.52478-7.49847,21.8833-11.10068c6.03943-2.95654,14.33081-5.14072,20.57178-1.55215
	c-1.09583,1.33429-2.11169,2.7489-3.0415,4.24396c-3.5968,5.78299-6.04468,12.19281-9.66577,17.96326
	c-3.31665,5.28528-7.52808,10.14923-12.71387,13.67456c-2.72339,1.85141-5.65527,3.20764-8.70691,4.41846
	c-3.42542,1.35922-6.83289,2.72916-9.75464,5.02527C1242.78894,387.70056,1240.09241,392.22394,1238.69263,397.06985z
	 M1254.05994,278.07169c2.58838-0.00494,5.17651,0.23712,7.7511,0.48056c2.68896,0.25424,5.33911,0.63666,7.91528,1.47412
	c4.7688,1.54999,9.03223,4.32098,13.14404,7.17285c-0.85889,0.43115-1.70618,0.88516-2.52893,1.37903
	c-10.27515,6.16754-17.48303,16.39102-22.49243,27.06659c-0.38184-0.26343-0.76001-0.5379-1.13159-0.83551
	c-2.28528-1.83054-4.4082-3.83908-6.66797-5.60492c3.47534-3.15891,4.35486-8.52475,3.40955-12.95135
	c-0.9613-4.50031-4.04956-8.34528-6.21057-12.30957c-0.49011-0.89923-0.95764-1.81796-1.31738-2.77802
	c-0.08875-0.23718-0.17456-0.47537-0.2522-0.71646c-0.06653-0.20648-0.05054-0.50281-0.11609-0.55081
	c0.40186-0.29086,1.19336-0.54449,1.51245-0.67212C1249.30212,278.33615,1251.68127,278.07626,1254.05994,278.07169z
	 M1212.62671,295.62796c3.04492-2.37628,6.28455-4.51572,9.66162-6.38943c3.35474-1.8613,6.7616-3.60846,10.34412-4.99323
	c1.80481-0.69757,3.6366-1.3248,5.49097-1.87732c1.1167-0.33276,2.2915-0.5712,3.44446-0.85373
	c0.46643,1.74823,1.50647,3.53253,2.25,4.8782c1.17688,2.13089,2.56714,4.13257,3.77649,6.24423
	c1.25244,2.18671,2.401,4.63171,2.66711,7.16806c0.30615,2.91492-0.63171,5.58655-1.88721,8.16095
	c-2.21448-1.53107-4.61682-2.75211-7.46436-3.30032c-6.39197-1.23077-12.73462,0.32693-19.08997,0.99387
	c-2.98096,0.31284-6.07422,0.48599-9.01965-0.18411c-2.62109-0.59637-4.90698-1.86816-6.95862-3.55499
	C1207.69739,299.47519,1210.26721,297.46927,1212.62671,295.62796z M1142.07727,326.12842
	c3.21167-6.51096,7.50183-12.16272,12.20642-17.65833c8.05762-9.4126,19.93518-20.3154,33.46228-15.87885
	c5.68835,1.86557,9.25146,6.96393,13.37463,10.96472c2.10596,2.04352,4.44653,3.93649,7.15186,5.12012
	c2.85767,1.25034,5.91821,1.78391,9.03076,1.82852c5.98657,0.08591,11.8551-1.46725,17.83386-1.52945
	c2.75818-0.02869,5.58704,0.28537,8.10376,1.48984c2.69897,1.29166,4.89709,3.33261,7.0929,5.31998
	c2.59241,2.34641,5.26929,4.73721,8.50598,6.15295c3.39026,1.48285,6.98816,1.90292,10.61609,2.42188
	c3.24792,0.4646,6.71643,1.01138,9.40662,3.03778c1.28186,0.96561,2.35828,2.25998,3.26318,3.57315
	c0.36206,0.5253,0.69421,1.06763,1.02759,1.60944c-3.4054,0.01047-6.84082,0.6994-9.95447,1.84808
	c-8.17688,3.0166-14.9563,8.65121-22.83008,12.26663c-3.77527,1.73343-7.88232,2.89597-12.06482,2.73276
	c-3.95337-0.15421-7.77588-1.38742-11.54236-2.49741c-3.77966-1.11386-7.61621-2.23135-11.58655-2.31894
	c-3.57703-0.07886-7.09436,0.7778-10.23877,2.48157c-5.80481,3.14539-9.96826,8.66882-12.45801,14.73016
	c-2.44604-1.22501-4.87878-2.47681-7.31067-3.7283c-9.68921-4.98642-19.53699-10.02332-30.18005-12.63593
	c-6.34155-1.55673-13.0813-2.32468-19.65625-1.74152C1137.39417,337.78601,1139.2981,331.76263,1142.07727,326.12842z
	 M1390.39954,369.46695c-1.64673,2.10278-4.34448,2.00574-6.6167,1.09018c-5.74341-2.31409-8.95288-8.32608-14.66443-10.7803
	c-3.14905-1.35318-6.17505-1.10663-9.3772-0.05725c-1.40808,0.46155-2.76611,0.9194-4.26489,0.88004
	c-1.56958-0.04129-3.11646-0.56323-4.51355-1.25491c-5.62158-2.7829-10.02905-7.62823-16.32642-9.04309
	c-2.95654-0.66425-5.86658-0.41183-8.48792,1.17651c-1.70349,1.03235-0.14771,3.71362,1.56445,2.67621
	c5.93799-3.59818,12.58594,2.85837,16.96741,6.17728c2.57104,1.94757,5.46753,3.76871,8.6864,4.38144
	c1.70142,0.32391,3.37671,0.33649,5.07764,0.0011c1.68799-0.33282,3.25635-1.12509,4.95056-1.42133
	c2.979-0.52094,5.70117,1.23935,7.87976,3.07687c1.5238,1.28519,2.93762,2.68469,4.4187,4.00772
	c-1.12903,21.74753-7.79077,43.03391-19.0127,61.68008c-11.74963,19.5231-28.17957,35.43649-47.31201,47.68201
	c-11.48694,7.35226-23.60022,13.78799-35.68835,20.08688c-1.00293,0.52267-0.30347,2.28137,0.78418,1.85971
	c1.7406-0.67474,3.47241-1.36896,5.19934-2.07373c0.23608,2.22794,0.34448,4.46622,0.28796,6.70847
	c-0.04724,1.875,0.28638,4.38544-1.80627,5.14285c-2.20813,0.79919-4.72827,1.05688-7.02612,1.51349
	c-2.60767,0.51825-5.22449,0.98419-7.83667,1.47821c-10.1189,1.91376-20.77539,2.72321-30.91663,0.49988
	c-1.35193-0.29639-2.69446-0.64417-4.01733-1.05151c-0.45959-0.14148-0.93311-0.18372-1.13245-0.5827
	c-0.2052-0.41064-0.07642-1.47128-0.0946-1.92975c-0.07556-1.90759,0.04919-3.86685,0.04065-5.80557
	c3.19128,0.71597,6.43738,1.25217,9.74988,1.55869c2.58838,0.23956,3.22559-4.19809,0.62-4.58142
	c-5.99731-0.88226-11.94287-2.12985-17.7063-4.0249c-5.82556-1.91553-11.33875-4.50931-16.72449-7.42569
	c-10.46667-5.66779-20.91589-11.52893-30.59741-18.47757c-8.76929-6.29407-16.66895-13.68954-23.38672-22.1463
	c-6.50195-8.18527-11.77051-17.31927-15.92017-26.90234c-2.31104-5.33731-4.15039-10.8707-5.68518-16.4776
	c-1.46973-5.36896-2.76843-10.8186-3.48608-16.34262c0.64014-0.14572,1.28638-0.26819,1.94299-0.35413
	c1.98779-0.2601,4.19812-0.22769,6.03784,0.65918c2.02197,0.97467,3.20044,2.78461,4.28491,4.66928
	c1.17773,2.04651,2.30127,4.19171,4.021,5.8497c1.76929,1.70605,4.03711,2.83609,6.39697,3.47159
	c10.67322,2.87427,21.33997-2.81384,32.04028-1.17236c5.4574,0.83716,10.24951,3.94376,15.61914,5.16577
	c5.36365,1.22073,10.91992,1.2981,16.32532,0.30783c2.56873-0.47058,5.07849-1.22397,7.4989-2.20087
	c3.07886-1.24261,1.3252-5.56232-1.78516-4.23438c-4.56201,1.94781-9.60315,2.7717-14.54724,2.59818
	c-5.31982-0.18674-10.09473-1.82959-14.96912-3.83084c-5.02222-2.06192-10.01904-2.84558-15.43542-2.37457
	c-5.28894,0.45996-10.48352,1.71701-15.78857,2.01349c-4.3573,0.24344-9.56848,0.02844-12.71948-3.43188
	c-1.422-1.56158-2.28809-3.59323-3.38562-5.37854c-1.20618-1.96182-2.67981-3.75082-4.67761-4.94705
	c-3.99878-2.39438-9.0022-1.95694-13.3114-0.76108c-4.67737,1.298-9.03711,3.88138-13.91125,4.45496
	c-1.88818,0.2222-5.22949,0.27673-6.61877-1.34335c-0.58093-0.67743-0.37292-1.78772-0.30249-2.60611
	c0.08972-1.04126,0.21814-2.07874,0.38293-3.11066c0.68677-4.30222,1.85425-8.59061,3.60974-12.58401
	c3.43921-7.82382,8.93982-14.80719,16.51685-18.95465c8.43762-4.61862,18.51904-5.1196,27.83142-3.45294
	c10.16113,1.81863,19.552,6.02325,28.70312,10.65836c4.75476,2.40829,9.45959,4.91513,14.24475,7.26334
	c4.87268,2.3912,9.92725,4.2514,14.89966,6.40039c4.98303,2.15359,8.70703,6.02338,12.62952,9.65524
	c4.24512,3.93085,8.5127,7.81018,12.88013,11.60455c1.84338,1.60144,3.74768,3.09274,5.69543,4.55255
	c-0.0968,0.483-0.20374,0.96497-0.2749,1.45004c-1.10449,7.52933,0.60974,14.95398,3.29907,21.96573
	c0.9071,2.36502,2.5448,6.30948,0.18359,8.41455c-0.9762,0.87042-2.60352,0.80212-3.81018,1.13
	c-1.5509,0.42148-2.99854,1.16919-4.2749,2.13724c-5.6792,4.30737-7.0282,11.57297-6.02515,18.29004
	c2.00696,13.44138,10.96301,24.83426,20.25916,34.203c2.34631,2.36465,4.74731,4.61926,7.27246,6.7897
	c1.19788,1.02948,2.74438-0.52591,1.72681-1.72672c-8.24817-9.733-17.75378-18.85519-22.58167-30.94162
	c-2.27698-5.70068-4.3158-13.06665-1.4967-18.93707c1.11755-2.32736,2.95325-4.46396,5.41052-5.41748
	c1.50183-0.58282,3.14172-0.58038,4.62463-1.23093c1.39587-0.6124,2.54175-1.68924,3.26721-3.03561
	c1.58008-2.9324,1.19531-6.27377,0.14673-9.31201c-1.16113-3.36429-2.47217-6.61429-3.22913-10.10889
	c-1.37317-6.33929-1.18701-13.21317,1.9165-19.03711c1.33301-2.50159,3.14563-4.80276,5.4696-6.45575
	c2.75842-1.96194,5.96643-3.08545,9.07812-4.3414c5.98181-2.41437,11.24231-5.85764,15.70728-10.53751
	c4.44434-4.6579,7.85071-10.08167,10.76233-15.79453c2.8623-5.61624,5.47852-11.58856,9.80798-16.26749
	c4.40344-4.75885,10.3009-7.84485,16.45398-9.70267c3.34229-1.00916,6.79102-1.65115,10.29395-1.47021
	c3.07947,0.15912,6.04785,1.14319,8.83716,2.41333c5.91748,2.69461,11.46667,6.23419,18.07324,6.92816
	c6.79712,0.71399,13.46753-1.55496,20.25757-1.25888c5.75769,0.25107,10.36536,3.25525,13.79797,7.75723
	c1.76208,2.31091,3.20068,4.87448,4.49377,7.47028c1.40784,2.82574,2.84265,5.76611,3.6886,8.8161
	C1391.98901,364.134,1392.15723,367.22287,1390.39954,369.46695z M1322.15857,400.5195
	c3.22485-8.30035,6.06201-16.86185,7.75903-25.61661c0.16748-0.86505,1.6189-0.66486,1.53723,0.20801
	c-0.96375,10.31219-4.01599,20.10431-7.64258,29.76004c-2.0531,5.46594-4.229,10.90909-6.57678,16.27872
	c5.9115-4.31796,11.65454-8.87787,16.96387-13.91989c3.23718-3.07437,6.29077-6.3176,9.24792-9.66046
	c1.50012-1.69592,2.97168-3.4151,4.39417-5.17697c0.71094-0.88028,1.57971-1.58682,2.35046-2.41684
	c0.72241-0.77783,1.38159-1.62109,2.25049-2.23923c0.66382-0.47229,1.58557,0.31329,1.35669,1.04297
	c-0.29956,0.95541-0.87793,1.78787-1.39612,2.63754c-0.50903,0.83472-0.92566,1.75961-1.48279,2.55484
	c-1.17188,1.67273-2.56616,3.2316-3.8877,4.78644c-8.87085,10.43631-19.70557,19.84369-31.68103,26.57343
	c-3.4718,7.57471-7.31458,14.97485-11.69604,22.04407c6.51672-1.83679,12.88525-4.28766,18.81372-7.56192
	c3.15161-1.74072,6.16748-3.70782,9.07922-5.82361c2.99109-2.17346,5.64441-4.86478,8.82336-6.76459
	c0.8811-0.52658,2.00757,0.54138,1.43481,1.43494c-2.06128,3.21643-5.29871,5.56598-8.33093,7.80878
	c-3.00232,2.22064-6.19556,4.18384-9.49609,5.92871c-6.73499,3.56061-13.89966,6.20667-21.41003,7.52304
	c-0.18567,0.03253-0.35291,0.01682-0.50671-0.02405c-3.65662,5.64874-7.70654,11.05728-12.23291,16.0368
	c-5.02222,5.52509-10.78674,11.28748-17.69275,14.36575c-1.03552,0.46161-2.2356-0.78738-1.28992-1.67178
	c3.0885-2.88858,6.44714-5.4624,9.5957-8.28458c3.10217-2.78058,6.01111-5.77335,8.73621-8.92368
	c0.41724-0.48248,0.82373-0.97345,1.23218-1.46292c-1.10547-0.85403-1.75964-2.27386-2.43958-3.48413
	c-0.84009-1.49515-1.61511-3.02652-2.32373-4.58826c-1.42419-3.13956-2.61499-6.38229-3.51465-9.71106
	c-1.82385-6.74683-2.34509-13.61688-1.38342-20.54132c0.18835-1.35489,2.28687-0.95377,2.30615,0.31216
	c0.09888,6.46924,0.89111,13.01025,2.60461,19.25668c0.84607,3.0838,1.92383,6.1105,3.26746,9.01324
	c0.69019,1.49118,1.4408,2.95419,2.25098,4.38373c0.44067,0.7775,1.0896,1.62582,1.53748,2.5141
	c5.1416-6.58426,9.56299-13.7142,13.5061-21.09592c-1.21277-1.37936-1.97412-3.21948-2.75293-4.84674
	c-0.89233-1.86435-1.71814-3.76111-2.48645-5.67984c-1.5614-3.8996-2.76453-7.95538-3.7052-12.04727
	c-1.91699-8.34009-2.54065-16.80026-1.60571-25.31131c0.17188-1.56558,2.51184-1.64752,2.50452,0
	c-0.03589,8.1478,0.7467,16.40924,2.56006,24.35773c0.90405,3.96201,2.10974,7.83032,3.49829,11.6474
	c0.70569,1.93967,1.47913,3.8537,2.32971,5.73444c0.42371,0.93634,0.9397,1.87762,1.38391,2.84094
	c1.64746-3.22519,3.21387-6.48853,4.71411-9.76837C1316.03564,415.56961,1319.22229,408.07672,1322.15857,400.5195z
	 M1234.18457,482.81046c0.94995,0.79913,0.0907,2.15952-0.92993,2.24463c-3.48438,0.29053-7-1.9006-9.95312-3.54556
	c-3.12891-1.74286-6.11133-3.73398-9.06775-5.75128c-9.33081-6.36652-18.58667-13.27991-26.71643-21.19589
	c-1.04553-0.37985-1.98853-1.14981-2.92822-1.71957c-1.24792-0.75656-2.50598-1.49643-3.77368-2.21918
	c-2.46741-1.40674-4.94409-2.79721-7.46411-4.10794c-2.58301-1.34354-5.18298-2.6575-7.8197-3.89255
	c-1.31653-0.61673-2.64148-1.21539-3.97437-1.79623c-1.22546-0.53406-2.63806-0.91138-3.68579-1.74921
	c-0.53809-0.4303-0.08069-1.36005,0.55347-1.33612c1.39368,0.05252,2.84399,0.79501,4.14648,1.27039
	c1.36633,0.49857,2.72559,1.01575,4.07776,1.55115c2.67358,1.0585,5.32556,2.17578,7.92676,3.40164
	c1.90247,0.89648,3.78125,1.84259,5.64294,2.82101c-6.38916-7.50659-11.66577-15.88864-15.11719-25.45978
	c-0.28857-0.80023,1.03735-1.35373,1.37317-0.57895c2.64954,6.11221,6.17065,11.67245,10.17029,16.98187
	c7.3186,9.71509,16.62769,17.8364,26.29968,25.13196c3.10657,2.34338,6.27258,4.61432,9.47021,6.83817
	c-2.05176-3.11627-3.86633-6.38898-5.41748-9.78198c-3.35278-7.33417-5.42212-14.9227-5.75891-22.99442
	c-0.05115-1.22604,1.92883-1.50726,2.15222-0.29129c1.36011,7.39713,3.51282,14.88892,6.72693,21.69937
	c1.61084,3.41327,3.49805,6.69531,5.63037,9.80945c1.07471,1.56931,2.21802,3.0874,3.40613,4.5723
	c0.91467,1.14331,1.97717,2.21735,2.85107,3.40671c1.33911,0.83362,2.69702,1.63696,4.08557,2.38666
	C1228.78271,479.9592,1231.83215,480.83163,1234.18457,482.81046z M1190.54846,311.52594
	c-0.08447-0.38535,0.28467-0.62173,0.62085-0.47729c1.05566,0.45364,1.81201,1.38434,2.74829,2.04541
	c0.90247,0.63721,1.83606,1.22275,2.8208,1.72452c2.0166,1.02762,4.22156,1.70679,6.42212,2.21545
	c9.42712,2.17926,19.21008-0.07822,28.74182,1.07178c4.52979,0.54654,8.88135,1.84039,12.95276,3.90915
	c1.98853,1.01035,3.8772,2.20386,5.65125,3.55508c1.75415,1.33597,3.55847,2.65375,4.50012,4.68857
	c0.59583,1.28781-0.6333,2.67529-1.97046,1.9704c-2.24463-1.18332-3.94666-3.19778-6.03894-4.64938
	c-1.99426-1.38345-4.13208-2.58475-6.36719-3.53391c-4.36389-1.8533-9.02051-2.62955-13.73706-2.79233
	c-5.20862-0.17972-10.42444,0.26947-15.62854-0.06439c-4.07666-0.2616-8.26929-0.91531-12.04468-2.53348
	c-1.80762-0.77478-3.52332-1.73352-5.08557-2.93167C1192.79517,314.69687,1190.92651,313.25003,1190.54846,311.52594z
	 M1250.31189,363.06113c-8.26709,4.13202-18.03552,4.70755-26.65991,1.34406c-1.34033-0.5228-0.82788-2.6394,0.60754-2.2038
	c8.67664,2.63318,17.81726,1.51236,25.68933-2.9072c3.60083-2.02164,6.92847-4.48029,10.427-6.66644
	c1.67175-1.04471,3.38428-2.03122,5.17371-2.86203c1.9126-0.88803,3.99146-2.03632,6.10974-1.3942
	c0.97156,0.2944,1.31299,1.51318,0.59412,2.25c-1.45642,1.49265-3.67224,1.81628-5.53003,2.7012
	c-1.90466,0.90717-3.72668,1.97699-5.51379,3.09518C1257.60425,358.67374,1254.12463,361.15549,1250.31189,363.06113z
	 M1125.97864,383.3353c-1.33032,0.44894-2.90002,0.2504-4.28979,0.4252c-1.4043,0.17661-2.7937,0.47604-4.16895,0.80505
	c-2.77881,0.66486-5.52747,1.56207-8.35059,2.0264c-1.98047,0.32574-4.34009,0.00381-4.77393-2.3345
	c-0.43958-2.36862,0.64209-5.125,1.9386-7.05508c0.53516-0.79663,1.81738-0.06622,1.29749,0.75845
	c-0.64368,1.02133-1.12183,2.10571-1.38965,3.28589c-0.19934,0.8782-0.59436,2.63873,0.17383,3.34344
	c0.63367,0.58145,1.78357,0.37894,2.5437,0.23376c1.17383-0.22418,2.33484-0.53107,3.48926-0.83722
	c2.37305-0.62927,4.73096-1.33173,7.14343-1.79913c1.98999-0.38559,4.63904-1.03775,6.55859-0.16833
	C1126.75745,382.2941,1126.50623,383.15729,1125.97864,383.3353z M1154.07617,396.0643
	c0.31689,0.36014,0.3396,1.04016-0.16455,1.27838c-0.83789,0.39594-1.92346,0.22263-2.80298,0.00906
	c-0.91394-0.22205-1.8219-0.47299-2.70728-0.79205c-1.60498-0.57831-3.12256-1.35065-4.4292-2.45801
	c-1.37415-1.16461-2.13354-2.5994-2.89502-4.19547c-0.72156-1.51318-1.8446-2.7374-3.42224-3.37436
	c-1.07886-0.43555-0.64246-2.19003,0.49097-1.78116c1.59363,0.57486,2.95288,1.54367,3.96594,2.90784
	c0.99182,1.33551,1.44031,2.95435,2.64294,4.14752c1.1488,1.13995,2.61609,1.92471,4.13574,2.45062
	c0.88879,0.30768,1.8009,0.54407,2.71802,0.75034C1152.41113,395.18759,1153.51538,395.42654,1154.07617,396.0643z
	 M1278.71997,377.90787c-7.27441,6.14627-17.30054,7.91806-24.30225,14.40753c-3.49902,3.24316-5.44055,7.38052-5.86731,12.12048
	c-0.42834,4.75806,0.32251,9.51685,1.1427,14.19125c0.14795,0.84259-1.11951,1.21271-1.2981,0.35788
	c-1.08862-5.21371-2.18164-10.62622-1.62207-15.9751c0.48328-4.61996,2.25879-8.9173,5.51855-12.26398
	c3.26697-3.354,7.40149-5.6059,11.58093-7.60968c4.54236-2.1778,9.28247-4.21274,13.1145-7.56131
	c1.87195-1.63574,3.53967-3.48965,5.08838-5.43036c1.5387-1.92834,2.79309-4.1817,4.73669-5.73697
	c0.73413-0.58737,2.13013-0.07336,1.75305,1.02042c-0.8623,2.50058-2.65479,4.57578-4.2854,6.62039
	C1282.599,374.15585,1280.78198,376.1655,1278.71997,377.90787z M1308.30566,299.23242c3.13,1.5061,5.52502,4.02228,7.95032,6.44138
	c2.67664,2.66965,5.42896,4.82928,9.07446,6.0061c3.77539,1.21878,7.74255,1.69241,11.54492,2.81747
	c3.67285,1.08673,7.79712,2.46063,10.77539,4.92117c0.59888,0.49481-0.04297,1.56329-0.76147,1.30817
	c-2.00598-0.71234-3.84497-1.76602-5.81201-2.58759c-1.8999-0.79355-3.85437-1.4606-5.83923-2.00739
	c-3.72058-1.02505-7.59143-1.50452-11.22961-2.82578c-3.42529-1.2439-6.14404-3.31927-8.70508-5.86609
	c-2.45459-2.44089-4.78369-5.04709-7.94568-6.58548C1306.26831,300.32449,1307.22241,298.71115,1308.30566,299.23242z
	 M1141.46008,335.07922c0.68958-3.11316,2.09546-6.05789,3.75183-8.77213c0.84338-1.38205,1.73718-2.80109,2.79492-4.03134
	c0.96582-1.12363,2.10071-2.4425,3.39197-3.1839c0.73242-0.42056,1.47681,0.40491,1.11377,1.11365
	c-0.35461,0.69226-0.87378,1.2691-1.33545,1.89352c-0.46375,0.62738-0.88269,1.28726-1.34717,1.91324
	c-0.88806,1.19638-1.77051,2.38416-2.56592,3.64609c-1.62805,2.58282-2.95337,5.32532-4.34485,8.03607
	C1142.48694,336.53659,1141.27307,335.92325,1141.46008,335.07922z" class="svg-style-0"/></svg>