<svg version="1.1" id="Layer_1" xmlns="http://www.w3.org/2000/svg" xmlns:xlink="http://www.w3.org/1999/xlink" x="0px" y="0px" viewBox="42.23404 635.05725 300 218.35355" style="enable-background:new 42.23404 635.05725 300 218.35355;" xml:space="preserve"><defs><style> .svg-style-0 {  fill: rgb(0, 0, 0); }</style></defs><path id="path-01_00000032640103840704956440000002915192390449183873_" d="M340.92145,710.66974
	c-1.69687-9.29712-5.41803-18.10608-11.6608-25.26532c-4.10968-4.71307-9.311-8.68365-15.13647-11.07227
	c-2.10776-5.66461-5.27905-11.08716-10.03036-14.91077c-2.84937-2.29309-6.0997-4.0592-9.35706-5.69781
	c-3.31445-1.6673-6.729-3.15546-10.24048-4.35767c-3.62817-1.24219-7.31961-2.08502-11.13885-2.34595
	c0.01807-0.06287,0.03809-0.12506,0.05606-0.18793c0.98462-3.44293,1.76477-6.93475,2.31693-10.47314
	c0.17844-1.14343-1.20935-1.82233-1.89926-0.80072c-2.09955,3.10852-4.29669,6.14886-6.55197,9.14722
	c-3.38937-0.5885-6.89148-0.83905-10.26297-0.01599c-3.47852,0.84924-6.76634,2.54688-10.04201,3.95673
	c-0.03931,0.01691-0.06252,0.04401-0.09351,0.06635c-2.52043-0.41614-4.91971-1.26514-7.16017-2.64124
	c-0.87743-0.53888-1.79294,0.34723-1.62135,1.2464c0.04007,0.20953,0.07945,0.41803,0.11952,0.62726
	c-1.14198-0.56897-2.40024-0.85767-3.63922-1.18701c-1.46629-0.38977-2.94415-0.73584-4.43066-1.03973
	c-3.05597-0.62463-6.15048-1.07361-9.25569-1.36554c-6.10648-0.57397-12.27946-0.47083-18.36958,0.24554
	c-6.13132,0.72119-12.32623,1.90509-18.01257,4.37799c-5.58711,2.42975-10.38345,6.32501-14.72311,10.54053
	c-2.45314,2.383-4.77681,4.90326-6.89348,7.59058c-1.95715,2.48468-3.9619,5.09247-5.23711,8.00928
	c-3.12558,1.91431-6.03471,4.20978-8.64343,6.90363c-4.46371,4.6095-7.85162,10.07635-10.423,15.9267
	c-5.89594-0.46783-11.86183,0.16016-17.4641,2.17255c-2.91693,1.04785-5.70818,2.41687-8.44377,3.88025
	c3.03534-5.6955,2.53679-13.02087,1.84259-19.34033c-0.06763-0.61572-0.4167-1.12024-1.06654-1.20807
	c-0.55849-0.07544-1.23967,0.27795-1.34952,0.88104c-1.02245,5.61407-3.06574,10.98901-6.08884,15.83179
	c-1.49507,2.39526-3.21352,4.63812-5.14079,6.70184c-1.70501,1.82568-3.6845,4.02899-6.13884,4.84247
	c-1.08813-1.72546-2.19602-3.42017-3.16368-5.22687c-1.10619-2.06573-2.13053-4.1803-2.99271-6.36023
	c-1.69678-4.29028-2.79544-8.80548-2.74356-13.43829c0.01105-0.97949-1.22331-1.1803-1.72692-0.46771
	c-2.37351,3.35791-6.72104,5.34631-10.77593,5.24762c-1.01149-0.02454-1.32999,1.16632-0.76534,1.84772
	c3.08595,3.72388,5.95998,7.61725,8.56741,11.69141c1.2859,2.00922,2.48054,4.06799,3.66807,6.13605
	c0.90173,1.57025,2.36948,3.74219,1.71545,5.62567c-2.10681,0.24347-4.21174,0.54071-6.33353,0.62341
	c-2.39141,0.0932-4.81843-0.0174-7.1881-0.35785c-4.72433-0.67889-9.31485-2.23096-13.4557-4.60413
	c-0.94574-0.54205-2.28181,0.36407-1.9158,1.47278c1.21116,3.66821,4.41705,6.41034,7.71285,8.22681
	c1.63488,0.90112,3.40196,1.59607,5.21621,2.0365c0.39419,0.09564,0.8192,0.19305,1.25723,0.28192
	c-2.854,1.54541-5.62933,3.23114-8.27493,5.13312c-5.36716,3.85858-10.11821,8.49762-13.69337,14.08411
	c-4.27698,6.68317-6.77567,14.4295-7.44589,22.32147c-0.52124,6.13647,0.17278,12.28888,1.97821,18.13501
	c1.13453,6.85443,2.82361,13.60883,5.20825,20.15137c2.70126,7.41089,6.2605,14.59265,11.03193,20.89813
	c4.21122,5.56512,9.22872,10.43561,14.98065,14.396c5.4318,3.73999,11.44684,6.58856,17.69202,8.6828
	c6.42171,2.15344,13.08394,3.47693,19.79745,4.30994c7.86559,0.97589,15.74788,1.1864,23.6317,0.26849
	c8.77032-1.02106,17.40356-3.16718,25.58183-6.50824c8.16594-3.336,15.93051-7.80414,22.54332-13.68042
	c4.0995-3.64301,7.70464-7.80725,10.65367-12.3999c18.96259,8.07294,40.05074,9.82294,60.2744,6.1593
	c10.21469-1.8504,20.15277-5.02307,29.71088-9.04779c8.45703-3.56104,16.71835-7.61713,24.02811-13.21893
	c6.28696-4.81799,11.78897-10.53876,16.3038-17.0517c4.40042-6.3479,7.77295-13.37561,10.25415-20.68127
	c2.70145-7.95447,4.26862-16.21631,5.1991-24.55212C342.42722,731.49579,342.79898,720.95685,340.92145,710.66974z
	 M257.48196,682.41486c6.2594-0.63617,12.44873-1.94928,18.38483-4.04626c5.79654-2.04779,11.39429-4.67828,16.76776-7.65723
	c1.57599-0.87372,3.1261-1.79004,4.68839-2.68738c0.51971-0.29852,1.0466-0.58429,1.57513-0.86737
	c-1.2944,1.89685-2.87064,3.61041-4.51904,5.19543c-2.46924,2.37408-5.15747,4.53943-7.97775,6.48199
	c-5.25217,3.61755-11.03482,6.31061-17.20706,7.9256c-3.66422,0.9588-7.40881,1.5788-11.18347,1.87482
	c-0.96225,0.07544-1.5466,1.46014-0.53418,1.97217c7.46021,3.77271,14.9649,7.45929,22.49435,11.09375
	c-1.42102-0.36346-2.84296-0.72266-4.2662-1.0755c-0.01721-0.0097-0.03381-0.02032-0.05093-0.03003
	c-0.13492-0.07605-0.26147-0.08856-0.37997-0.07611c-8.04941-1.98761-16.14404-3.7597-24.38686-4.87018
	c-3.24973-0.43781-6.7058-1.06189-9.94458-0.23724c-2.9938,0.76233-5.37563,2.84961-7.58527,4.90198
	c-4.37202,4.06049-8.29814,8.59564-11.73041,13.47522c-2.91624,4.14606-5.43985,8.54706-7.57011,13.13812
	c0.75592-9.7843,8.44463-17.92279,13.08899-26.20734c1.52931-2.72797,2.79245-5.51648,3.56985-8.5509
	c0.01157-0.04486,0.00908-0.08325,0.00891-0.12262c0.29701-0.67023-0.19957-1.55865-0.96304-1.78229
	c-3.17232-4.20398-9.83609-3.85535-14.55554-3.17285c-6.51848,0.94263-12.99217,2.2475-19.36354,3.91553
	c-2.01546,0.52765-4.02013,1.09399-6.01614,1.68988c6.21846-5.29785,14.57643-7.59436,22.45744-9.38251
	c2.7504-0.62408,5.50218-1.24432,8.23306-1.95038c2.64218-0.68311,5.33531-1.41296,7.81302-2.58148
	c0.90688-0.42761,1.63873-1.15247,1.52161-2.22296c-0.12894-1.17896-0.95909-2.38983-1.37631-3.49371
	c-0.90318-2.38971-1.53265-4.88123-1.9342-7.40302c-0.70695-4.43939-0.51242-9.00348,0.48854-13.38184
	c2.05544,7.7179,6.19003,14.93329,11.70796,20.66815c0.07826,0.08136,0.16113,0.13879,0.24547,0.18604
	c-0.51012,3.27893-1.24617,6.52411-2.20715,9.69092c-0.33502,1.10394,1.33667,1.53882,1.71194,0.47198
	c2.06091-5.85883,3.22644-11.94568,3.53081-18.14862c0.1506-3.06964,0.06833-6.14374-0.22757-9.20264
	c-0.22688-2.34497-0.52911-4.72565-1.02965-7.04559c2.83534,1.05316,5.88387,1.49646,8.89789,1.18298
	c0.08246,2.82159-0.22482,5.68292-0.49855,8.48322c-0.30446,3.11371-0.70985,6.21661-1.19498,9.30719
	c-0.46799,2.98151-0.94994,5.95941-1.50458,8.92627c-0.28023,1.49915-0.55557,3.00214-0.88837,4.49072
	c-0.12227,0.54663-0.24265,1.1156-0.51329,1.61108c-0.25368,0.46454-0.33116,0.53485-0.73332,0.71478
	c-0.78238,0.3501-1.66536,0.52185-2.50244,0.67908c-0.4406,0.08276-0.88651,0.17505-1.33034,0.23615
	c-0.38837,0.05347-0.67639-0.1604-0.40721,0.20728c-0.56079-0.76611-1.85475-0.02338-1.28702,0.7522
	c1.01236,1.38275,3.3011,0.802,4.66997,0.38879c0.72939-0.22015,1.53223-0.47119,2.15999-0.91638
	c1.06099-0.75244,1.38402-2.15527,1.60312-3.3576c0.68263-3.74524,1.3228-7.48914,1.85518-11.24884
	c0.33545,0.0611,0.69437-0.03912,0.99257-0.39844c7.88742-9.50208,15.48187-19.22485,22.65994-29.26666
	c-2.44662,10.59967-6.75864,20.66492-11.52896,30.42908c-1.55618,3.1853-3.15366,6.35059-4.74838,9.51678
	C256.09973,681.35797,256.52457,682.51221,257.48196,682.41486z M257.11981,646.93262
	c2.79697-0.57123,5.68161-0.47614,8.49265-0.03851c-5.16913,6.73541-10.6201,13.26367-16.04138,19.78442
	c0.21431-1.79138,0.39993-3.58752,0.5448-5.39105c0.31473-3.91602,0.26601-7.84503,0.54846-11.75806
	c0.02013-0.27948-0.25052-0.50543-0.51079-0.51074c-0.12312-0.0025-0.24385-0.01361-0.36636-0.01794
	C252.21129,648.23352,254.65005,647.43701,257.11981,646.93262z M233.46635,649.0293c1.60689,0.4054,3.1665,0.99457,4.82245,1.11212
	c0.12338,0.00879,0.23416-0.00708,0.33537-0.03717c0.37663,2.04126,0.71645,4.08331,0.9043,6.16357
	c0.26627,2.94946,0.33597,5.92139,0.22963,8.8808c-0.0661,1.83575-0.21806,3.67017-0.43477,5.49799
	c-5.69122-6.25977-9.82899-14.2865-11.23459-22.62915c-0.00984-0.05811-0.03639-0.09821-0.0536-0.14856
	c0.1727,0.03082,0.34625,0.05566,0.51877,0.08771C230.20206,648.26263,231.84097,648.61914,233.46635,649.0293z
	 M105.37859,705.19153c2.94536-3.77777,5.29395-7.96246,6.98106-12.44653c0.1066-0.2832,0.19881-0.5708,0.29923-0.85583
	c0.14401,5.49042-0.71636,11.02771-4.88547,14.81134c-2.48541,1.37823-4.98042,2.73187-7.51344,4.01984
	c0.11816-0.10797,0.23776-0.21533,0.3542-0.32361C102.33888,708.79254,103.93044,707.04889,105.37859,705.19153z M83.42116,704.7724
	c-2.40776-3.91449-5.06476-7.67151-7.93152-11.26282c1.70809-0.21619,3.37029-0.72632,4.91673-1.51105
	c1.44258-0.73206,2.63859-1.68298,3.68672-2.81268c0.29385,3.92059,1.24798,7.76648,2.67139,11.43726
	c0.85087,2.19427,1.84174,4.33344,2.92729,6.42096c1.13812,2.18872,2.28729,4.42084,3.57722,6.52386
	c0.09512,0.15503,0.21987,0.26263,0.35506,0.34955c-1.32957,0.6369-2.64724,1.29645-3.9209,2.04169
	c-0.48315,0.28271-0.96381,0.61127-1.45705,0.89209c0.44042-1.67847-0.16576-3.5097-0.90293-5.07959
	C86.20889,709.35583,84.81811,707.0434,83.42116,704.7724z M89.02334,719.22552
	C89.07214,719.19971,89.06229,719.20782,89.02334,719.22552L89.02334,719.22552z M73.96777,722.62128
	c-0.85798-0.09985-1.71759-0.26099-2.55682-0.46405c-1.63899-0.39661-3.21608-0.99884-4.69377-1.81177
	c-1.71091-0.94122-3.438-2.20905-4.73384-3.77588c3.34802,1.47308,6.88611,2.47174,10.53157,2.95746
	c2.91531,0.38837,6.0486,0.52124,9.083,0.16785c-0.35335,0.15717-0.70789,0.31067-1.06055,0.47028
	c-1.80878,0.81885-3.60403,1.66711-5.38,2.5517C74.76205,722.685,74.36444,722.66742,73.96777,722.62128z M59.26427,737.44586
	c4.47459-4.39008,9.72813-7.79047,15.17842-10.83667c2.76608-1.54602,5.5955-2.97559,8.44865-4.35321
	c1.47401-0.71167,2.93954-1.43286,4.40541-2.16095c0.3298-0.16382,0.65977-0.32739,0.98975-0.49084
	c0.18169-0.0899,0.37621-0.16901,0.55027-0.27228c0.06961-0.04132,0.1155-0.06726,0.1506-0.08667
	c0.82973-0.19281,1.63754-0.46808,2.45159-0.73181c3.12037-1.01111,6.10613-2.5351,9.06065-3.95398
	c3.53399-1.69714,6.93723-3.63281,10.35007-5.55774c3.616-2.03955,7.28098-4.13525,11.19341-5.55823
	c3.92766-1.42853,8.05257-2.18695,12.22947-2.26904c8.04163-0.1579,15.83383,2.11267,23.09753,5.42114
	c6.99527,3.18622,13.64619,7.27637,19.40781,12.38232c2.74681,2.43433,5.28531,5.09619,7.55051,7.98505
	c8.03195,10.3429,14.04604,22.67853,15.94052,35.71844c-0.00967,0.0661-0.00009,0.13409,0.02715,0.20197
	c0.08287,0.58459,0.16917,1.1687,0.23535,1.75598c0.27783,2.46631,0.39462,4.93121,0.3597,7.3822
	c-0.0495,0.92383-0.08237,1.84808-0.10378,2.77271c-0.62433,9.9895-3.85095,19.65363-9.58293,28.07385
	c-4.16284,6.11517-9.51416,11.53229-15.40514,15.99365c-6.01349,4.55426-12.72572,8.22675-19.89789,10.59167
	c-15.79343,5.20782-32.79543,3.63843-48.54939-0.87878c-7.38339-2.117-14.62714-4.82233-21.59125-8.06372
	c-6.14227-2.85889-12.09309-6.1839-17.56547-10.19c-11.06755-8.10223-19.85234-19.46039-22.07696-33.25934
	C43.79286,762.63672,48.87448,747.63947,59.26427,737.44586z M186.56905,825.88495
	c-5.72205,6.17944-12.66501,11.10449-20.16757,14.88879c-7.65034,3.85883-15.8913,6.49652-24.31067,8.04871
	c-7.95419,1.46643-16.04436,1.83929-24.10251,1.18323c-6.55443-0.53363-12.98369-1.50977-19.39693-3.22906
	c-6.18464-1.65802-12.06911-3.95081-17.60828-7.14893c-5.62119-3.24561-10.68414-7.35449-15.01858-12.18689
	c-4.91338-5.47797-8.83847-11.80402-11.90738-18.47858c-2.23704-4.86523-3.98314-9.91736-5.42144-15.06097
	c2.65562,4.63959,6.04731,8.86023,9.88216,12.57294c10.27754,9.95056,23.41825,16.51245,36.69022,21.49512
	c16.06149,6.02991,33.5041,9.71442,50.66246,7.15167c15.75215-2.35266,30.17397-10.56482,41.10547-22.02917
	c5.92119-6.20978,10.53183-13.45471,13.48164-21.34204c-0.26962,3.91479-0.75371,7.81506-1.64807,11.63922
	C196.83058,811.8504,192.45274,819.53107,186.56905,825.88495z M338.50537,735.56
	c-0.62671,8.47644-1.81415,16.91779-4.09991,25.11633c-4.03442,14.47058-11.5744,27.74762-22.88571,37.75531
	c-6.21152,5.49561-13.30542,9.68774-20.77899,13.22345c-9.13153,4.32007-18.6326,7.89764-28.44412,10.33484
	c-19.66714,4.88544-40.58723,4.7561-59.82362-1.96057c-1.87144-0.6535-3.71223-1.38757-5.53625-2.16193
	c1.04437-1.81647,1.98669-3.69391,2.82053-5.62671c0.0887,0.13007,0.17868,0.25897,0.26482,0.38757
	c0.26987,0.40338,0.5471,0.79895,0.83897,1.18677c0.58461,0.77716,1.18282,1.54431,1.79602,2.29907
	c0.58101,0.71497,1.17383,1.42139,1.78419,2.11151c0.62013,0.70117,1.37083,1.53845,2.30357,1.76599
	c0.4232,0.10321,0.75832-0.26355,0.67407-0.67407c-0.18536-0.90326-0.92905-1.65088-1.52914-2.32367
	c-0.62973-0.70605-1.26622-1.40436-1.87872-2.12561c-0.5954-0.70105-1.17734-1.41357-1.74533-2.13702
	c-0.2834-0.36102-0.57031-0.7182-0.85936-1.07477c-0.30754-0.37946-0.58331-0.78851-0.96902-1.08868
	c0.3083-0.79669,0.59761-1.59961,0.86115-2.41077c0.7144,0.9267,1.43719,1.84705,2.17744,2.75342
	c1.205,1.47565,2.4314,3.07593,3.93417,4.26141c0.31499,0.24841,0.85712-0.06555,0.60249-0.46484
	c-1.00952-1.58295-2.36298-2.97467-3.56438-4.41327c-0.93993-1.12555-1.85278-2.27332-2.75143-3.43213
	c0.9239-3.13263,1.55037-6.35504,1.96648-9.61835c0.2346,0.39276,0.46936,0.78534,0.70686,1.1767
	c0.64471,1.06244,1.27135,2.13574,1.87967,3.21936c0.60841,1.08374,1.19841,2.1778,1.76973,3.28156
	c0.29239,0.56506,0.55533,1.16351,0.90327,1.6972c0.32613,0.50031,0.74797,0.93884,1.1127,1.41046
	c0.25652,0.33185,0.74402-0.03564,0.65935-0.38385c-0.14906-0.61298-0.25009-1.23969-0.48572-1.8269
	c-0.23338-0.58167-0.54128-1.13617-0.83272-1.69c-0.57878-1.09961-1.17622-2.18933-1.79192-3.26862
	c-0.61575-1.07947-1.24977-2.1485-1.90184-3.20636c-0.33716-0.54718-0.68237-1.08643-1.04591-1.61646
	c-0.23296-0.3396-0.45805-0.70844-0.71953-1.03876c0.18648-1.87,0.31747-3.74786,0.40231-5.62549
	c2.04123,2.68671,3.98769,5.44647,6.1451,8.03973c0.15471,0.18591,0.43973-0.05206,0.32706-0.25232
	c-1.81563-3.22589-4.11995-6.17242-6.42232-9.07312c0.07372-2.07501,0.10316-4.14514,0.10883-6.19885
	c0.50659,0.7525,1.01312,1.50488,1.51971,2.25739c1.1353,1.68634,2.19989,3.66016,3.87167,4.87463
	c0.28322,0.20575,0.64188-0.13318,0.56345-0.43317c-0.51636-1.97528-1.97958-3.6748-3.12506-5.32257
	c-0.58914-0.84741-1.17819-1.69482-1.76726-2.54224c-0.30377-0.43695-0.59778-0.88312-0.91534-1.31024
	c-0.04906-0.06598-0.09949-0.13684-0.14957-0.2066c-0.00728-1.47528-0.04248-2.94189-0.11046-4.4079
	c0.07466,0.1084,0.15224,0.21478,0.22672,0.3233c0.57126,0.83344,1.13394,1.67273,1.68797,2.5177
	c0.54514,0.83136,1.02939,1.83667,1.75072,2.52356c0.34685,0.33032,1.00919,0.00629,0.84258-0.49048
	c-0.3084-0.91962-0.98769-1.74536-1.52563-2.54761c-0.58075-0.86603-1.17075-1.72595-1.76973-2.57947
	c-0.43982-0.62677-0.88966-1.24646-1.33932-1.86627c-0.02679-0.36841-0.05009-0.73657-0.08253-1.10559
	c-0.00189-0.02124-0.00822-0.03894-0.01062-0.05975c0.00137-1.30164-0.05188-2.60016-0.13263-3.89624
	c0.05695,0.07538,0.1161,0.14911,0.17296,0.22461c0.60258,0.80023,1.1758,1.62207,1.77718,2.42291
	c0.59642,0.79425,1.13145,1.71527,1.84756,2.40247c0.26114,0.25061,0.81619,0.00244,0.65942-0.38379
	c-0.37166-0.91608-1.02939-1.74255-1.5901-2.55469c-0.59393-0.86011-1.24719-1.68335-1.89148-2.50616
	c-0.35643-0.45532-0.73126-0.89502-1.09857-1.341c-0.17705-1.97034-0.45206-3.92963-0.80566-5.87567
	c0.70122,0.9823,1.3954,1.96973,2.0759,2.96472c1.41545,2.06952,2.64159,4.34912,4.31706,6.21722
	c0.29434,0.32831,0.94077-0.0166,0.76936-0.44781c-0.93889-2.36163-2.58594-4.45105-4.07878-6.49255
	c-1.12494-1.53827-2.30818-3.02258-3.52559-4.48224c-1.84019-8.50995-5.27333-16.69836-9.77634-24.12378
	c-1.89268-3.12103-3.98999-6.10455-6.22806-8.98657c-4.89085-6.2511-11.07379-11.42627-17.78174-15.63098
	c-6.82704-4.27936-14.4308-7.85266-22.27525-9.7774c-1.68282-0.41296-3.38919-0.73846-5.10713-0.97839
	c4.48152-9.63776,11.51782-17.8927,21.18645-22.6524c9.58009-4.71606,20.73857-5.81976,31.21518-4.17957
	c6.04021,0.94562,12.02802,2.75439,17.69458,5.0354c0.59341,0.23883,0.92981-0.68646,0.42227-1.00153
	c-9.60878-5.96472-21.46162-8.26678-32.67523-7.30511c-6.68637,0.57336-13.1705,2.39093-19.01363,5.45526
	c1.17572-1.42468,2.2981-2.90106,3.4881-4.30298c1.90724-2.24658,3.90694-4.42572,6.0051-6.49536
	c4.16209-4.10553,8.74242-8.03717,13.97832-10.70618c5.26921-2.68597,11.24239-3.93042,17.0616-4.73901
	c5.90356-0.82037,11.89301-0.99109,17.83894-0.62372c2.62086,0.16199,5.23196,0.44757,7.82466,0.85748
	c-0.13066,0.11078-0.24248,0.24323-0.30052,0.40826c-1.67982,4.771-2.32454,9.87323-1.9122,14.91455
	c0.20326,2.48474,0.63734,4.94751,1.35945,7.33466c0.36319,1.20062,0.79214,2.37933,1.27827,3.53552
	c0.22261,0.52966,0.45499,1.05505,0.70207,1.57379c0.21919,0.46014,0.92271,1.36743,0.39745,1.74878
	c-0.42673,0.30994-1.16133,0.39185-1.65919,0.53033c-0.69138,0.19238-1.38728,0.36475-2.08258,0.54193
	c-1.33823,0.34106-2.66821,0.7077-4.01294,1.02393c-2.74826,0.6463-5.51973,1.185-8.27724,1.78906
	c-4.96048,1.08655-9.89441,2.29987-14.58005,4.29187c-4.88075,2.07501-9.45483,5.01508-12.81416,9.17352
	c-0.71817,0.8891-0.0851,2.50677,1.21655,2.0899c5.89877-1.88892,11.8882-3.48163,17.94142-4.79358
	c3.02602-0.65588,6.06837-1.23584,9.12349-1.73846c3.0488-0.50159,6.17841-1.09772,9.27985-0.84259
	c1.88446,0.15503,3.76781,0.76672,5.40303,1.76019c-6.37463,3.24548-11.78949,8.12408-15.65138,14.16119
	c-0.44069,0.68896,0.6221,1.54529,1.15327,0.88977c4.44557-5.48694,10.06847-9.97369,16.41716-13.05945
	c-2.23824,4.89417-5.48283,9.2608-8.58401,13.63361c-3.41763,4.81903-6.63568,10.00391-8.21141,15.75031
	c-0.88374,3.22314-1.14891,6.54779-0.62946,9.85413c0.19315,1.22943,1.82007,0.89996,2.17693,0
	c4.25713-10.73584,10.78654-20.55469,19.02209-28.64886c1.98669-1.95258,4.05977-4.08234,6.58739-5.32538
	c2.90564-1.42896,6.29578-0.90271,9.38181-0.51666c6.62164,0.82825,13.18378,2.10352,19.68762,3.58649
	c2.74878,0.62677,5.48959,1.29413,8.22647,1.97888c2.42642,1.90295,4.63785,4.07831,6.63388,6.42682
	c1.26517,1.48846,2.40903,3.07465,3.42987,4.74005c1.00534,1.6402,1.76236,3.5321,3.16077,4.88239
	c0.30145,0.29114,0.84857,0.08643,0.84189-0.34875c-0.03125-2.03638-1.19431-3.88574-2.23978-5.56403
	c-1.09796-1.76251-2.33774-3.44067-3.68954-5.01678c-1.29483-1.5097-2.72876-2.88544-4.26483-4.13684
	c3.25931,0.84497,6.5112,1.7182,9.75278,2.61963c1.21451,0.33777,2.06152-1.49652,0.87878-2.08441
	c-9.92734-4.93427-19.89908-9.78406-29.9314-14.50159c5.57513-0.81281,11.02646-2.10431,16.24472-4.35339
	c6.32883-2.72766,12.11841-6.7254,17.19662-11.36499c3.0434-2.7804,5.9538-5.95978,7.52396-9.82269
	c0.36218-0.89093-0.83264-1.66254-1.57391-1.20996c-2.69955,1.64825-5.34824,3.31061-8.14923,4.78613
	c-2.69116,1.41766-5.41119,2.78754-8.1781,4.05176c-5.43866,2.48492-11.0983,4.52148-16.91367,5.92792
	c-2.75143,0.66547-5.53711,1.16931-8.3436,1.52704c5.11526-10.16425,10.11453-20.4801,13.42017-31.38849
	c6.65271,1.23077,13.05954,3.71448,19.03452,6.84497c3.03534,1.59039,6.11932,3.26007,8.92581,5.23212
	c2.55219,1.79346,4.72055,4.10046,6.46237,6.68188c1.25909,1.86603,2.31094,3.85278,3.19751,5.91382
	c-0.92725-0.26331-1.8653-0.49127-2.81592-0.66919c-2.06262-0.38605-4.16388-0.58832-6.26273-0.55878
	c-2.24063,0.03149-2.24704,3.5166,0,3.48499c8.13702-0.1145,15.76511,3.36426,21.74451,8.76245
	c6.43817,5.81226,10.76788,13.3822,13.10922,21.69257C339.0535,715.46295,339.24033,725.61871,338.50537,735.56z
	 M208.83788,711.15344c-0.60541,1.56647-1.62804,2.83173-2.66205,4.1413c-1.0132,1.28296-1.95346,2.61426-2.8528,3.97888
	c-1.83711,2.78748-3.44374,5.72357-4.87683,8.73792c-0.25446,0.53522-1.10695,0.15033-0.94145-0.39685
	c0.98769-3.2663,2.38412-6.39478,4.1179-9.33496c0.87177-1.47852,1.83823-2.91235,2.86736-4.28577
	c1.01115-1.34943,2.1033-2.6311,3.63947-3.38501C208.46835,710.44263,209.00313,710.72583,208.83788,711.15344z M324.4155,768.15302
	c-0.19604,1.57605-0.49066,2.95563-1.06174,4.44305c-0.55746,1.45197-1.17032,2.88452-1.83832,4.28906
	c-1.2937,2.72076-2.80402,5.33801-4.51038,7.82074c-6.48404,9.43396-15.6543,16.19305-25.52728,21.75116
	c-5.10107,2.87177-10.32712,5.72992-15.82922,7.76227c-5.43051,2.00586-11.24161,3.23663-16.99277,2.01123
	c-0.56027-0.11945-0.42725-1.01208,0.13406-0.9903c6.51669,0.25299,12.7843-1.43268,18.7131-4.02826
	c5.11914-2.24103,10.06497-4.96564,14.8757-7.80212c4.77371-2.81476,9.40955-5.90479,13.56622-9.58362
	c3.95068-3.49646,7.40872-7.50598,10.23532-11.96265c1.40527-2.2157,2.6571-4.52924,3.7435-6.91748
	c0.54291-1.19336,1.03812-2.40704,1.4902-3.6377c0.45462-1.23737,1.01218-2.35803,1.5925-3.53699
	C323.32437,767.12537,324.50839,767.40656,324.4155,768.15302z M334.71179,726.49707
	c0.24197,1.16266,0.04898,2.33618-0.09384,3.49677c-0.38184,3.10339-0.76688,6.20508-1.19196,9.30292
	c-0.78574,5.72583-1.48987,11.4823-4.19958,16.68323c-0.23349,0.44812-1.00302,0.12976-0.82126-0.34619
	c1.88788-4.94427,2.05783-10.39655,2.62558-15.60815c0.30795-2.82794,0.63718-5.65179,0.98468-8.47516
	c0.14923-1.21234,0.37921-2.44385,0.40302-3.66699c0.01019-0.526-0.09351-0.99213-0.18066-1.50555
	c-0.05634-0.33173-0.17139-0.71332-0.15857-1.05774c0.00977-0.26154,0.17596-0.49915,0.43445-0.57068
	C333.54156,724.46509,334.52371,725.5932,334.71179,726.49707z M67.56181,779.28882
	c3.82552,4.19177,7.32816,8.66803,10.46128,13.40009c2.88115,4.35138,5.3741,9.16193,9.51152,12.48944
	c2.18533,1.75745,4.62819,3.12708,7.11266,4.41071c2.47977,1.28113,5.01312,2.4538,7.59555,3.51294
	c5.1395,2.10809,10.48637,3.67633,15.97793,4.53522c5.64841,0.88336,11.35463,1.00385,17.02179,0.22205
	c2.88158-0.39758,5.76366-0.99432,8.53394-1.89026c1.23923-0.40082,2.3593-1.01349,2.88329-2.26733
	c0.52252-1.25018,0.48999-2.74274,0.30856-4.06195c-0.37262-2.70917-1.5842-5.29755-2.53053-7.84302
	c-0.48581-1.30658-0.88959-2.68988-1.49405-3.94745c-0.58435-1.21552-1.71716-1.73022-3.03346-1.67041
	c-1.41714,0.06433-2.84697,0.33844-4.25386,0.51666c-1.45551,0.18439-2.91103,0.36877-4.36653,0.55316
	c-0.94592,0.11981-2.2677,0.44623-3.19263,0.04102c-0.15266-0.06689-0.12347,0.06281-0.06259-0.0874
	c0.12808-0.31586,0.34889-0.58502,0.57707-0.84265c1.34541-1.51892,2.89673-2.99176,1.86563-5.16455
	c-0.96219-2.02747-2.87747-3.69006-4.86159-4.67194c-1.12263-0.5556-2.29826-0.90875-3.51224-1.19946
	c-1.07931-0.25836-2.50726-0.47858-3.23055-1.42657c-0.25224-0.33057-0.32407-0.65778-0.20583-1.05029
	c0.2054-0.6814,0.53931-1.18286,0.48126-1.93262c-0.09546-1.23438-1.12622-1.9541-2.19894-2.34393
	c-1.19283-0.43347-2.4831-0.63104-3.70008-0.99969c-1.39678-0.42316-2.77721-0.91479-4.11961-1.4881
	c-0.97879-0.41803-2.35939-0.87494-2.95683-1.81769c-0.32253-0.50891-0.35831-1.18158-0.42946-1.76434
	c-0.08981-0.73566-0.178-1.47144-0.26824-2.20703c-0.17612-1.43707-0.28683-2.90228-0.54214-4.32776
	c-0.23014-1.28516-1.06535-2.19226-2.33687-2.51019c-1.13633-0.28412-2.29655-0.39819-3.42491-0.74164
	c-1.12622-0.34277-2.20604-0.79449-3.24168-1.35394c-2.092-1.13-4.04692-2.66492-5.49875-4.56189
	c-0.61491-0.80341-1.33873-1.94037-1.18779-3.00275c0.13331-0.93848,0.98016-1.36047,1.80715-1.57959
	c2.04217-0.54108,4.23699-0.24573,6.31718-0.66986c2.13455-0.43524,4.24574-1.26373,6.06564-2.46753
	c1.6413-1.08557,3.11539-2.52087,3.91756-4.34363c0.33477-0.76074-0.10591-1.4657-0.68666-1.74762
	c-0.85165-1.74884-2.01648-3.20947-3.56172-4.47424c-1.8235-1.49255-3.88126-2.62695-6.09774-3.42328
	c-5.23317-1.88019-11.11832-1.52808-16.44695-0.24823c-9.35621,2.24719-18.49999,8.08484-22.0642,17.37042
	c-1.76768,4.60522-1.92966,9.90601-0.17654,14.54175C60.20068,771.7348,64.04537,775.43579,67.56181,779.28882z M62.94432,749.12195
	c2.46196-3.74908,6.06752-6.6377,10.00982-8.71039c8.33735-4.38354,20.08222-6.2265,28.23592-0.49463
	c1.46596,1.03052,2.83243,2.38794,3.89666,3.86646c-1.67341,3.38495-5.78763,5.10065-9.35997,5.52515
	c-2.03841,0.24219-4.16037-0.06818-6.11444,0.7074c-2.17265,0.86243-3.30444,2.91217-2.78062,5.21497
	c0.51902,2.28162,2.3379,4.22925,4.05154,5.72107c1.76691,1.53809,3.75754,2.74713,5.92283,3.63513
	c1.10379,0.45276,2.23926,0.81818,3.40624,1.06891c0.51927,0.11157,1.049,0.1731,1.56664,0.28998
	c0.51405,0.11603,0.53786,0.22742,0.61868,0.73486c0.22586,1.4176,0.32467,2.86755,0.48751,4.29395
	c0.14761,1.2926,0.15728,2.72742,0.62708,3.95227c0.94009,2.45044,3.85188,3.39856,6.08746,4.27496
	c1.26236,0.49493,2.54835,0.92932,3.85249,1.30072c0.62467,0.17792,1.25439,0.33252,1.88438,0.49011
	c0.23296,0.05829,1.02716,0.15497,1.16381,0.42639c-0.19196-0.38141-0.48135,0.74548-0.52467,0.95331
	c-0.12346,0.59192-0.10539,1.21893,0.07509,1.79706c0.33879,1.08527,1.1621,1.98077,2.13575,2.54401
	c2.12522,1.22937,4.73333,1.10272,6.88817,2.30896c0.91586,0.51276,1.72984,1.15808,2.40126,1.96851
	c0.47955,0.57904,1.1966,1.37469,0.75069,2.11292c-0.86834,1.43768-2.68619,2.34717-2.64492,4.2439
	c0.04949,2.26312,2.65314,2.65503,4.40635,2.51172c2.7802-0.22729,5.55963-0.67725,8.32828-1.01904
	c0.60609-0.07477,1.28214-0.24011,1.89413-0.17981c0.53494,0.05273,0.56662,0.42798,0.74205,0.9032
	c0.51286,1.38971,1.02254,2.7807,1.53368,4.17108c0.87152,2.37018,2.09628,4.89124,2.0546,7.46741
	c-0.00797,0.49005-0.00128,1.17053-0.26517,1.6073c-0.29512,0.48865-0.96518,0.62671-1.47229,0.78027
	c-1.37778,0.41724-2.77524,0.7713-4.18332,1.07001c-2.68097,0.56866-5.39532,0.91028-8.131,1.06061
	c-10.86207,0.59705-21.44913-2.0578-31.24121-6.66119c-4.79129-2.25238-9.66709-4.6886-13.10603-8.83044
	c-1.5842-1.90796-2.88312-4.03845-4.20164-6.13263c-1.39593-2.21692-2.84236-4.39886-4.37775-6.52197
	c-3.2017-4.427-6.75281-8.53149-10.46317-12.53503c-3.36549-3.63147-6.43893-7.46619-7.25025-12.49359
	C59.09637,757.88245,60.37449,753.0354,62.94432,749.12195z M116.49383,737.34424c0.67587,0.44281,1.7997,0.328,2.15228-0.67664
	c0.61431-1.75055,2.75143-2.61194,4.24128-3.45026c1.81776-1.02283,3.89948-2.40643,5.93995-1.05573
	c0.95943,0.63519,1.72246,1.46936,2.80263,1.92151c1.17931,0.49365,2.47351,0.47516,3.67328,0.89355
	c1.80501,0.62946,3.34212,2.20251,3.87946,4.04211c0.54625,1.8703-0.40291,3.80847,0.21696,5.67505
	c0.33049,0.99554,1.09822,1.7804,2.09944,2.10767c0.52989,0.17316,1.09789,0.21002,1.65184,0.21014
	c0.52364,0.00018,1.18222-0.13611,1.66922,0.1145c0.8555,0.44019,1.52194,1.76276,2.04012,2.53119
	c0.70755,1.04913,1.37871,2.15717,1.71484,3.38708c0.68486,2.50555-0.96037,4.50964-1.74849,6.76666
	c-0.75952,2.17529-1.12007,4.99994-0.10609,7.15375c1.10568,2.34888,3.79924,2.58014,6.08713,2.52185
	c2.49423-0.0636,5.1967-0.50098,7.57758,0.4743c0.78297,0.32074,1.64523,0.83051,2.04225,1.61176
	c0.40746,0.80182,0.1976,1.66986-0.08244,2.47913c-0.62074,1.79352-1.80553,3.49152-1.67401,5.46918
	c0.07037,1.05865,0.54111,1.92365,1.1358,2.77777c0.4388,0.63037,1.06355,1.31329,0.59831,2.08374
	c-0.41098,0.68036-1.20963,1.15967-1.83891,1.61353c-0.84402,0.60864-1.70647,1.21405-2.36171,2.03259
	c-1.39891,1.74744-1.51749,4.04364-0.74333,6.09033c1.64319,4.34406,6.08147,7.46753,10.17815,9.27704
	c1.05721,0.46698,2.13763,0.93848,3.29065,1.09473c1.36356,0.18469,2.67104-0.15662,3.90352-0.73151
	c2.00929-0.93726,3.89084-2.28387,5.37273-3.93549c2.94202-3.27899,4.21713-7.96179,4.96089-12.19739
	c0.87503-4.98218,0.90327-10.08148,0.36191-15.1026c-1.16878-10.84113-4.74651-21.1637-9.09566-31.10248
	c-3.65129-8.34406-7.49983-17.45227-14.70702-23.39233c-7.55334-6.22522-17.48482-7.4101-26.87767-5.76074
	c-2.36888,0.41595-4.71227,1.00317-6.99895,1.74841c-2.245,0.73163-4.54326,1.55408-6.58406,2.75653
	c-2.08601,1.22894-3.75222,2.94214-4.76132,5.1568c-1.0549,2.31519-1.55115,4.94525-1.63573,7.47925
	c-0.08425,2.52356,0.3792,5.01849,1.07707,7.43439C116.03508,737.15338,116.25461,737.30383,116.49383,737.34424z
	 M119.17685,721.43671c1.30576-1.90967,3.40641-3.06201,5.49918-3.92041c2.11666-0.86823,4.31774-1.56769,6.52805-2.1532
	c8.82571-2.33783,18.83023-2.46448,26.73555,2.6709c7.46112,4.84668,11.44734,13.22229,14.83235,21.12982
	c4.18863,9.78491,7.84196,20.12177,9.35501,30.69537c0.6947,4.8551,0.84796,9.82422,0.28288,14.70056
	c-0.47792,4.12451-1.27016,8.48224-3.4362,12.08929c-1.07794,1.79517-2.3903,3.5639-4.20995,4.66559
	c-0.95499,0.57819-2.10818,1.07971-3.24503,0.99988c-1.22298-0.08582-2.45485-0.7287-3.53467-1.26605
	c-2.061-1.02557-3.97664-2.33087-5.63301-3.93317c-1.43127-1.38458-2.87959-3.18433-3.02061-5.25916
	c-0.27852-4.09668,6.72601-4.52045,5.5134-8.92572c-0.26071-0.94727-0.92151-1.66956-1.41107-2.49536
	c-0.49179-0.82983-0.37929-1.61377-0.07611-2.49261c0.6125-1.77545,1.73557-3.36536,1.80679-5.29956
	c0.08014-2.17645-1.4341-3.92987-3.30743-4.8382c-2.21666-1.07495-4.65823-1.15289-7.07721-1.0871
	c-1.16211,0.03168-2.33345,0.10602-3.49571,0.04248c-0.97751-0.05341-1.91289-0.27087-2.25597-1.2843
	c-0.71825-2.12109,0.19058-4.64929,1.09755-6.56061c1.10934-2.33783,1.7556-4.58783,0.86252-7.12805
	c-0.77066-2.19183-2.20563-4.37933-3.75839-6.10217c-0.73495-0.81549-1.65039-1.24536-2.7314-1.34991
	c-0.65567-0.06342-2.09021,0.31323-2.50587-0.35571c-0.39206-0.63074-0.06747-1.86224,0.0047-2.54181
	c0.10454-0.98517,0.09109-1.9361-0.15215-2.90546c-0.51714-2.06091-1.88368-3.82257-3.59769-5.03735
	c-0.81148-0.5752-1.75328-1.01086-2.71478-1.26569c-1.22125-0.32361-2.50844-0.28027-3.57834-1.03058
	c-0.84402-0.59186-1.55286-1.33179-2.50133-1.76764c-1.18025-0.54236-2.46899-0.62805-3.73768-0.40253
	c-2.0593,0.36609-3.92492,1.67218-5.70578,2.71338c-1.18247,0.69141-2.26289,1.48987-3.05418,2.54041
	C116.30675,729.92157,116.66832,725.10535,119.17685,721.43671z M77.358,767.62354c1.64833,1.06976,3.98006,0.19934,5.59705-0.50409
	c1.00602-0.43774,1.9593-0.98309,2.89194-1.55878c0.48502-0.29938,0.96483-0.60718,1.4455-0.91357
	c0.49384-0.31476,1.0954-0.60248,1.47546-1.05505c0.44308-0.52771,0.2328-1.29449-0.31413-1.5213
	c-0.0917-0.08649-0.20052-0.15967-0.34753-0.19519c-1.758-0.42468-3.55059-0.53326-5.35106-0.56213
	c-1.9444-0.03119-4.07372-0.03174-5.57119,1.4079C75.82766,764.02533,75.64992,766.51489,77.358,767.62354z M78.86737,764.39056
	c1.11587-0.76929,2.76522-0.52972,4.05001-0.59393c0.70601-0.03534,1.41458-0.09625,2.1235-0.15167
	c-0.47998,0.29169-0.96269,0.57904-1.4562,0.8476c-1.2782,0.69562-2.78713,1.43286-4.2709,1.47418
	c-0.41894,0.01166-0.91441-0.02985-1.00936-0.51819C78.22138,765.02057,78.52473,764.62677,78.86737,764.39056z M84.45919,747.77533
	c1.20927-0.08575,2.40717-0.31158,3.58639-0.586c0.54881-0.12762,1.09497-0.26599,1.6413-0.40338
	c0.6281-0.1579,1.33865-0.24915,1.89491-0.59198c0.59702-0.36804,0.54984-1.08606,0.13083-1.47382
	c-0.06148-0.14154-0.16336-0.26874-0.31371-0.36255c-1.46674-0.91577-3.06189-1.56384-4.68761-2.13342
	c-1.7348-0.60779-3.64375-1.32654-5.4717-0.65808c-1.78625,0.6532-3.0981,2.7724-2.01854,4.58514
	C80.23119,747.84747,82.73244,747.89789,84.45919,747.77533z M81.17812,744.30304c0.41191-0.56183,1.28051-0.58978,1.90758-0.50848
	c0.87656,0.11353,1.72984,0.47168,2.57883,0.70831c0.76603,0.21362,1.54559,0.39856,2.32265,0.59222
	c-0.09418,0.02167-0.18784,0.04517-0.2822,0.06628c-1.00208,0.22473-2.0122,0.42773-3.03791,0.50323
	C84.08752,745.70728,80.05053,745.84143,81.17812,744.30304z M88.37076,777.57056c0.09298,1.21997,1.04095,1.89929,2.19148,2.01416
	c2.05116,0.20483,3.55471-1.42218,4.60114-2.95929c1.10123-1.61749,2.11752-3.29138,3.19614-4.92389
	c0.24521-0.37122,0.17945-0.86725-0.07406-1.21655c-0.11533-0.35889-0.44582-0.57434-0.83384-0.62164
	c-1.76956-0.21558-3.68904,0.15009-5.19858,1.11719c-1.53514,0.98358-2.68568,2.427-3.36249,4.11298
	C88.58823,775.84662,88.30834,776.75159,88.37076,777.57056z M90.48108,777.35876c-0.00659-0.0033-0.0137-0.00714-0.02466-0.01526
	c0.00993,0.00446,0.0173,0.00818,0.0226,0.01123C90.47971,777.35626,90.48031,777.35718,90.48108,777.35876z M90.62663,776.87549
	c0.07603-0.34851,0.17774-0.6911,0.30317-1.02496c0.39941-1.06256,1.23436-2.1745,2.20065-2.84735
	c0.77407-0.539,1.61382-0.93555,2.50433-1.15912c-0.51919,0.81018-1.03555,1.62225-1.558,2.43036
	c-0.6977,1.07922-1.41955,2.50464-2.61778,3.00494c-0.20891,0.08728-0.45779,0.13171-0.70378,0.1261
	c-0.09615-0.00226-0.12774-0.00031-0.20017-0.0249c0.00069-0.04791,0.00317-0.09564,0.00651-0.14337
	c0.00359-0.01996,0.01438-0.10748,0.01575-0.11475C90.59324,777.03998,90.60865,776.95752,90.62663,776.87549z M90.46687,777.33032
	c0.00411,0.00848,0.00633,0.01239,0.0101,0.02026c-0.00805-0.0033-0.01336-0.00513-0.02243-0.00891
	c-0.01318-0.00995-0.02808-0.0224-0.04418-0.04016C90.42919,777.31116,90.44803,777.32074,90.46687,777.33032z M102.40112,793.82904
	c1.87393,0.60107,2.89819-1.30359,3.58408-2.67194c0.50275-1.00281,1.0055-2.00568,1.50826-3.00854
	c0.51987-1.03723,0.96902-2.18695,1.6127-3.15222c0.17124-0.25696,0.17329-0.56451,0.06661-0.83221
	c0.01259-0.44897-0.36028-0.91919-0.94831-0.80383c-3.20161,0.62787-6.00793,2.92023-7.24691,5.95062
	c-0.34983,0.85583-0.5447,1.84174-0.26508,2.74774C100.95974,792.85986,101.59349,793.56995,102.40112,793.82904z
	 M102.72845,789.79926c0.56097-1.12958,1.30748-2.112,2.26229-2.93823c0.51311-0.44409,1.08444-0.84241,1.68865-1.18152
	c-0.13905,0.27966-0.27903,0.55792-0.40677,0.83411c-0.34787,0.7522-0.69566,1.50433-1.04343,2.25653
	c-0.35249,0.76215-0.69608,1.52924-1.05824,2.28687c-0.19179,0.40131-0.44839,1.03479-0.89531,1.22028
	c-0.40558,0.1684-0.77699-0.26501-0.89788-0.61041C102.16388,791.05597,102.45824,790.34338,102.72845,789.79926z
	 M114.9342,803.49774c0.50635,0.79395,1.43462,1.01215,2.28395,0.66309c1.5044-0.61829,1.98276-2.40204,2.33311-3.83453
	c0.2488-1.01715,0.41508-2.0553,0.51319-3.09753c0.04521-0.48059,0.07243-0.96289,0.0822-1.4455
	c0.01113-0.55273,0.07517-1.16193-0.03759-1.70068c-0.09606-0.45886-0.60644-0.74908-1.04617-0.68298
	c-0.23947,0.03607-0.42561,0.14465-0.56285,0.29877c-1.25465,0.5907-2.30913,1.44312-3.08757,2.62268
	c-0.91193,1.38202-1.33102,3.08215-1.1603,4.72913C114.33642,801.86383,114.48608,802.7948,114.9342,803.49774z
	 M116.49451,802.56873C116.50975,802.57758,116.50804,802.57843,116.49451,802.56873L116.49451,802.56873z M116.6636,797.93286
	c0.38786-0.80731,0.94634-1.52094,1.62187-2.10059c-0.00668,0.4093-0.02184,0.8186-0.05394,1.22675
	c-0.06918,0.88147-0.20702,1.75354-0.40429,2.61536c-0.16695,0.72937-0.32997,1.52148-0.69394,2.18268
	c-0.1244,0.22614-0.26995,0.45782-0.49735,0.59161c-0.04521,0.02655-0.13297,0.04364-0.18425,0.05988
	c-0.00925-0.01752-0.0191-0.0321-0.02672-0.0592C116.00084,800.94995,115.97224,799.37213,116.6636,797.93286z M129.61861,811.79315
	c0.50618,0.79401,1.43454,1.01221,2.28387,0.66315c1.50439-0.61829,1.98276-2.40216,2.33319-3.83459
	c0.24872-1.01715,0.4149-2.05524,0.51311-3.09753c0.04529-0.48059,0.07243-0.96289,0.08211-1.4455
	c0.01122-0.55273,0.07535-1.16193-0.03751-1.70068c-0.09605-0.45886-0.60643-0.74908-1.04608-0.68298
	c-0.23956,0.03607-0.42569,0.14465-0.56285,0.29877c-1.25475,0.59076-2.3093,1.44318-3.08766,2.62274
	c-0.91191,1.38202-1.3311,3.08209-1.16039,4.72906C129.02083,810.15924,129.17032,811.09021,129.61861,811.79315z
	 M131.17892,810.8642C131.19408,810.87305,131.19244,810.87384,131.17892,810.8642L131.17892,810.8642z M131.34793,806.22833
	c0.38785-0.80737,0.94643-1.52087,1.62187-2.10059c-0.00659,0.40936-0.02184,0.8186-0.05386,1.22668
	c-0.06935,0.88147-0.20702,1.75354-0.40428,2.61542c-0.16696,0.72931-0.32997,1.52142-0.69403,2.18268
	c-0.12448,0.22607-0.26994,0.4577-0.49744,0.59161c-0.04503,0.02655-0.13287,0.04358-0.18408,0.05981
	c-0.00941-0.01752-0.01918-0.0321-0.02689-0.0592C130.68517,809.24536,130.65648,807.6676,131.34793,806.22833z
	 M173.30351,790.19299c-0.40309-0.47394-0.83736-0.9231-1.31357-1.32416c-1.00156-0.84326-2.1485-1.47363-3.43253-1.6665
	c-0.25548-0.10657-0.55197-0.12689-0.80875-0.04944c-0.30249,0.05261-0.55403,0.28235-0.65892,0.56854
	c-0.17244,0.3313-0.18314,0.73206,0.01636,1.09137c0.3786,0.68213,0.72929,1.37628,1.04857,2.08813
	c0.27748,0.61865,0.51851,1.29651,0.86363,1.9707c0.65096,1.27161,1.91357,2.51141,3.45941,2.35706
	c0.77681-0.07758,1.47177-0.47272,1.91879-1.11664c0.46815-0.67456,0.45857-1.50287,0.12431-2.23029
	C174.23555,791.26086,173.74324,790.71002,173.30351,790.19299z M172.685,793.14771
	c-0.01764,0.00354-0.12355,0.06946-0.1768,0.09967c-0.01257,0.00275-0.01781,0.00391-0.03775,0.00824
	c-0.01662,0.0036-0.08974,0.01385-0.13168,0.02167c-0.03955-0.00244-0.09213-0.00348-0.11018-0.00092
	c-0.0965-0.01752-0.19273-0.0426-0.28452-0.07562c-0.0202-0.00848-0.04135-0.01758-0.05052-0.02283
	c-0.05573-0.03174-0.11198-0.06122-0.16652-0.09509c-0.04196-0.02606-0.08296-0.05463-0.12338-0.08331
	c-0.00916-0.00989-0.07054-0.06091-0.09674-0.08514c-0.09538-0.08832-0.18417-0.18237-0.26851-0.28137
	c-0.00333-0.00403-0.0029-0.00348-0.00581-0.00677c-0.03784-0.05261-0.07483-0.10632-0.10959-0.16101
	c-0.14633-0.2301-0.31842-0.57697-0.39282-0.7572c-0.21678-0.52539-0.46268-1.25604-0.70618-1.8551
	c-0.0405-0.09967-0.08777-0.19659-0.12895-0.29608c0.1685,0.10474,0.33615,0.21185,0.49368,0.33191
	c0.02141,0.01697,0.05394,0.04254,0.05736,0.04535c0.04984,0.04126,0.09984,0.08203,0.14899,0.12396
	c0.0988,0.08423,0.1958,0.17078,0.29102,0.25909c0.19203,0.17816,0.37646,0.36444,0.55455,0.55652
	c0.17885,0.19287,0.35112,0.39178,0.51773,0.59528c0.18219,0.22253,0.22681,0.28064,0.41936,0.54645
	c0.14966,0.20648,0.29564,0.41492,0.4167,0.63977c0.09898,0.18396,0.03888,0.09076,0.02586,0.05328
	c0.01857,0.05334,0.03578,0.11407,0.04588,0.17078c0.00009,0.0011,0,0.00238,0,0.0036
	c-0.00598,0.02631-0.01181,0.05273-0.02029,0.07843c-0.0011,0.0022-0.00043,0.00037-0.00162,0.00275
	c0.0024,0.00128-0.0601,0.09967-0.06456,0.10651C172.86026,792.9472,172.75555,793.07452,172.685,793.14771z M172.86137,792.93506
	C172.86128,792.93506,172.86137,792.93506,172.86137,792.93506c0.00163-0.01038,0.00325-0.02069,0.00497-0.03101
	C172.86617,792.91925,172.86505,792.93268,172.86137,792.93506z M158.82338,758.70422
	c-0.13425,0.11487-0.24521,0.25861-0.33066,0.41675c-0.0226,0.03015-0.04778,0.0575-0.06995,0.08801
	c-0.10077,0.13837-0.12491,0.30792-0.09889,0.47339c-0.03424,0.41742,0.12946,0.84265,0.59763,1.11047
	c0.74393,0.4256,1.56938,0.41132,2.39577,0.33984c0.9341-0.08081,1.86049-0.06482,2.79321-0.19135
	c1.81203-0.24573,3.77029-0.50629,4.87657-2.14545c0.96954-1.43671,0.43178-3.31293-1.11758-4.05774
	c-1.71477-0.8244-3.46223-0.08649-4.98367,0.80627C161.38971,756.42212,159.9425,757.38013,158.82338,758.70422z
	 M166.37305,756.08014c0.86577,0.07355,1.70757,0.81146,1.12639,1.68097c-0.66011,0.98785-2.30742,0.97363-3.35367,0.97797
	c-0.83409,0.00348-1.66922-0.06061-2.50262-0.04889c-0.20772,0.00293-0.41525,0.01215-0.62279,0.01862
	c0.5471-0.4411,1.13914-0.83038,1.7372-1.18738C163.80022,756.89911,165.0963,755.9718,166.37305,756.08014z M167.08949,774.69226
	c-0.03082,0.02393-0.06345,0.04443-0.09401,0.06891c-0.16934,0.13519-0.23819,0.31207-0.23596,0.49274
	c-0.11267,0.38025-0.04674,0.80823,0.31422,1.17004c0.58134,0.58264,1.3573,0.79517,2.14268,0.93811
	c0.83357,0.15167,1.64027,0.40002,2.48088,0.51953c1.80183,0.25616,3.85385,0.61456,5.40569-0.58435
	c1.39207-1.07556,1.5955-2.98474,0.31584-4.24585c-1.37665-1.35663-3.33946-1.13403-5.05182-0.67914
	c-1.70125,0.4519-3.37628,0.9989-4.82837,1.99103C167.37083,774.44067,167.21844,774.55426,167.08949,774.69226z
	 M172.62421,774.01007c0.85739-0.21338,1.8051-0.46442,2.68585-0.23145c0.51697,0.13672,1.13316,0.5462,1.21098,1.12238
	c0.08032,0.59344-0.47885,1.01111-0.98204,1.16394c-0.80447,0.24432-1.74559,0.03058-2.53755-0.16077
	c-0.86972-0.21014-1.71648-0.50433-2.57558-0.7514c-0.25497-0.0733-0.51439-0.12933-0.77228-0.19116
	C170.60054,774.54315,171.6098,774.26257,172.62421,774.01007z M151.55353,746.6875
	c0.04965,0.02557,0.09975,0.04919,0.14966,0.06915c0.64026,0.25671,1.18257-0.06097,1.73087-0.36005
	c0.43066-0.23492,0.86894-0.45581,1.3067-0.67706c0.83949-0.42438,1.68387-0.84637,2.47472-1.35779
	c1.59138-1.02899,3.38005-2.62579,3.7453-4.57965c0.44075-2.35815-1.21759-4.53595-3.60788-4.73181
	c-2.21033-0.18103-3.74554,1.60779-4.63718,3.40363c-1.11185,2.23901-1.74362,4.60187-1.94508,7.09113
	C150.7298,746.04987,151.09872,746.49841,151.55353,746.6875z M154.58528,740.66498c0.27551-0.64404,0.65729-1.36627,1.0567-1.99768
	c0.2863-0.45245,0.75737-0.83197,1.23906-0.95331c0.01541-0.00391,0.0524-0.00732,0.08493-0.01007
	c0.08305-0.0033,0.16533-0.00281,0.24881-0.00171c0.01884,0.00024,0.07304,0.00946,0.10738,0.01532
	c0.05103,0.01166,0.10188,0.02338,0.15222,0.03766c0.01558,0.00446,0.11096,0.03955,0.16208,0.05664
	c0.04649,0.02643,0.13853,0.07489,0.15215,0.08319c0.01437,0.00873,0.10274,0.0741,0.14468,0.10303
	c0.03853,0.04407,0.16731,0.17529,0.16679,0.17462c-0.09256-0.10657,0.09375,0.16827,0.15746,0.27106
	c-0.01422-0.00952,0.07996,0.24536,0.09375,0.29724c0.00565,0.02112,0.00932,0.03235,0.01292,0.04315
	c0.00026,0.00464,0.00009,0.00562,0.00052,0.01099c0.00642,0.0932,0.00591,0.18567,0.00282,0.27893
	c-0.00069,0.02112-0.00052,0.02618-0.00069,0.0379c-0.02217,0.1236-0.05728,0.24481-0.09212,0.36493
	c-0.00369,0.01257-0.03065,0.07947-0.04265,0.11133c-0.03407,0.07147-0.07106,0.14294-0.10925,0.21088
	c-0.08218,0.14618-0.17397,0.28693-0.27106,0.42352c-0.09505,0.13361-0.47159,0.54376-0.70705,0.77429
	c-0.21695,0.2124-0.55721,0.52075-0.72081,0.6452c-0.20772,0.15802-0.63521,0.43506-0.94438,0.61951
	c-0.5739,0.34241-1.16963,0.64545-1.76691,0.94501C153.94588,742.33508,154.23886,741.47528,154.58528,740.66498z
	 M137.61177,729.11469c0.2375,0.40765,0.65413,0.70575,1.15894,0.6778c0.65053-0.03601,1.22571-0.32715,1.58548-0.88055
	c0.21251-0.32684,0.44984-0.56598,0.73991-0.84491c0.57449-0.55237,1.16534-1.09503,1.67657-1.70831
	c1.06808-1.28131,1.85356-2.90686,1.44627-4.60895c-0.19299-0.80652-0.7162-1.61169-1.47298-1.98944
	c-0.76321-0.38104-1.65364-0.32611-2.43192-0.01721c-1.43068,0.56787-2.40117,1.79248-2.93021,3.2074
	c-0.67467,1.80432-0.34897,3.83545-0.07962,5.68396C137.33299,728.83203,137.45338,728.99451,137.61177,729.11469z
	 M140.99557,721.66589C140.95723,721.68127,140.91785,721.69098,140.99557,721.66589L140.99557,721.66589z M139.09416,724.49341
	c0.19221-1.01172,0.5448-1.8045,1.30193-2.46039c0.08313-0.07208,0.26353-0.19409,0.4631-0.29846
	c0.04683-0.02448,0.09427-0.04919,0.14273-0.07062c0.01764-0.00568,0.03133-0.01019,0.06198-0.01959
	c0.12981-0.03986,0.26114-0.086,0.39624-0.10468c0.34213-0.04736,0.53802,0.10693,0.69702,0.45917
	c0.18828,0.41718,0.16516,0.87488,0.04692,1.32159c-0.13271,0.50146-0.3941,0.95111-0.74359,1.35254
	c-0.43768,0.50269-0.94095,0.94269-1.44473,1.37708c-0.29813,0.25708-0.58905,0.54584-0.90619,0.77911
	c-0.02191,0.01611-0.04991,0.03162-0.06917,0.04523c-0.00104,0.00061-0.00652,0.00409-0.00813,0.00519
	C138.963,726.07904,138.94623,725.27179,139.09416,724.49341z M186.83481,798.74677c1.7574-3.29675,3.32628-6.6427,4.68932-10.12469
	c4.78958-12.23572,5.77548-25.70593,2.22429-38.41882c-0.1346-0.48181,0.57681-0.66345,0.73973-0.20398
	c1.2753,3.59821,2.18524,7.30505,2.65024,11.09515c0.82126,6.69403,0.40677,13.49744-1.15808,20.05542
	c-1.57126,6.58466-4.24786,12.7912-8.5775,18.03516C187.12968,799.51587,186.65125,799.09125,186.83481,798.74677z
	 M133.79498,739.4696c-0.11977-0.66547-0.38382-1.26404-0.72913-1.84113c-0.85849-1.43481-2.51332-2.12372-4.11653-1.53485
	c-0.09323,0.0343-0.15727-0.11987-0.06755-0.16022c1.22118-0.54895,2.63756-0.38635,3.76602,0.31244
	c1.18571,0.73431,1.91664,1.8689,2.21802,3.22522c0.36508,1.64319,0.04932,3.42065,0.79446,4.97351
	c0.30052,0.62628,0.71654,1.18335,1.22647,1.65405c0.49231,0.45428,1.21494,0.68665,1.55124,1.27838
	c0.16113,0.28363,0.03322,0.76337-0.33408,0.82104c-1.24249,0.19507-2.4576-1.24579-3.08664-2.17798
	c-0.80661-1.19525-1.09308-2.5556-1.12733-3.97864C133.8694,741.18524,133.94765,740.31763,133.79498,739.4696z
	 M107.76358,771.32446c-0.26088-0.7915-0.3429-1.65796-0.24924-2.4848c0.0726-0.64001,0.17064-1.60669,0.887-1.82172
	c0.16662-0.05005,0.35909,0.03351,0.44556,0.18127c0.35275,0.60291-0.11765,1.50085-0.12381,2.17279
	c-0.00702,0.78571,0.17004,1.57806,0.55601,2.26587c0.87408,1.55731,2.59647,1.66779,4.19136,1.92267
	c1.79208,0.28644,3.68228,0.43079,5.40064,1.03882c1.18042,0.4176,2.60314,1.2663,2.79955,2.62408
	c0.06961,0.48163-0.53837,0.80951-0.82125,0.34625c-0.42167-0.69049-0.86355-1.23206-1.60526-1.59497
	c-0.84891-0.41528-1.81468-0.47955-2.73474-0.62439c-1.00327-0.15796-2.00681-0.3136-3.01017-0.47046
	c-0.88401-0.13812-1.79987-0.22565-2.66051-0.47888C109.30924,773.95087,108.25785,772.82404,107.76358,771.32446z
	 M132.45326,789.40863c0.01653,0.07349,0.00925,0.14691-0.00984,0.2204c0.02165,0.12665,0.0619,0.24756,0.07979,0.37531
	c0.03964,0.28284-0.20676,0.50964-0.48297,0.37128c-0.12294-0.06165-0.25737-0.14996-0.35034-0.2533
	c-0.01781-0.0199-0.02724-0.03186-0.03554-0.04291c-0.02063-0.00812-0.05231-0.02344-0.11353-0.05933
	c-0.24274-0.14203-0.32269-0.44293-0.4167-0.69012c-0.18289-0.48108-0.2995-0.9837-0.44385-1.47675
	c-0.28392-0.96948-0.69984-1.72614-1.59259-2.24841c-0.86406-0.50555-1.88103-0.69623-2.73457-1.20892
	c-0.77082-0.46295-1.52332-1.08911-1.88266-1.93311c-0.09145-0.2146,0.19375-0.39905,0.32166-0.18805
	c0.55156,0.90894,1.48069,1.18781,2.426,1.52374c0.93143,0.33093,1.91297,0.57068,2.75939,1.10065
	c0.91013,0.56982,1.45123,1.40515,1.78506,2.40985c0.14999,0.45142,0.26498,0.9137,0.41832,1.36407
	C132.26079,788.90765,132.42073,789.16742,132.45326,789.40863z M182.15012,826.20416
	c-2.84511,4.10657-7.34529,7.06958-11.6006,9.55627c-3.90283,2.28058-8.00499,4.24524-12.14514,6.05322
	c-4.38889,1.91656-9.00946,3.5531-13.67018,4.66113c-4.81329,1.14435-9.78584,1.63666-14.72978,1.44196
	c-2.40391-0.09467-4.78761-0.36932-7.15993-0.76141c-2.59184-0.42834-5.23488-0.92236-7.86858-0.93097
	c-0.21635-0.00073-0.27646-0.35406-0.05248-0.38751c2.73217-0.40802,5.34969-0.1178,8.06885,0.22687
	c2.6659,0.33789,5.32768,0.59039,8.01756,0.5957c4.92674,0.00964,9.8176-0.68365,14.5636-1.99799
	c4.57896-1.26807,8.8853-3.1131,13.17085-5.13989c4.00249-1.89301,7.9738-3.91309,11.72304-6.27454
	c1.85089-1.16577,3.65059-2.42004,5.33633-3.81567c1.67923-1.39026,3.2363-2.91895,4.849-4.38263
	C181.42056,824.35168,182.79149,825.27832,182.15012,826.20416z" class="svg-style-0"/></svg>